<svg width="72" height="67" viewBox="0 0 72 67" fill="none" xmlns="http://www.w3.org/2000/svg">
<path d="M11.6946 45.1895C11.0448 44.7201 10.4193 44.2352 9.81794 43.7347M7.13673 41.1859C3.26473 37.0001 1 31.9272 1 26.4705C1.03721 -7.48577 70.946 -7.49458 70.9761 26.4705C71.4111 34.2762 65.8326 40.0022 60.6741 45.6789C58.9224 51.1795 49.3478 67.0153 45.7611 65.9486C43.2562 65.204 45.6964 51.8405 42.3055 52.2929C38.8393 52.7567 39.7511 52.4874 35.9854 52.4874C28.2609 52.4874 21.122 50.6259 15.3335 47.4708M49.7199 34.3387C49.7199 39.7953 43.5771 44.2188 35.9996 44.2188C28.422 44.2188 22.2792 39.7953 22.2792 34.3387C22.2792 28.8821 28.422 24.4586 35.9996 24.4586C43.5771 24.4586 49.7199 28.8821 49.7199 34.3387ZM26.3728 17.2351C27.4117 20.2542 26.2287 23.3892 23.7306 24.2373C21.2324 25.0854 18.3651 23.3255 17.3263 20.3064C16.2874 17.2874 17.4704 14.1524 19.9685 13.3042C22.4667 12.4561 25.334 14.216 26.3728 17.2351ZM52.0382 13.3161C54.5364 14.1642 55.7194 17.2992 54.6805 20.3183C53.6417 23.3374 50.7744 25.0973 48.2762 24.2491C45.7781 23.401 44.5951 20.266 45.6339 17.2469C46.6728 14.2279 49.5401 12.4679 52.0382 13.3161ZM40.7797 15.3231C40.7797 18.5137 38.6395 21.1001 35.9995 21.1001C33.3595 21.1001 31.2193 18.5137 31.2193 15.3231C31.2193 12.1325 33.3595 9.54607 35.9995 9.54607C38.6395 9.54607 40.7797 12.1325 40.7797 15.3231Z" stroke="black" stroke-width="2" stroke-linecap="round" stroke-linejoin="round"/>
</svg>
