<svg width="364" height="364" viewBox="0 0 364 364" fill="none" xmlns="http://www.w3.org/2000/svg">
<g clip-path="url(#clip0_92_78)">
<g style="mix-blend-mode:screen">
<g style="mix-blend-mode:screen">
<path d="M216.48 52.2522L215.96 52.4886H215.582C214.831 53.199 214.361 54.156 214.257 55.1845C214.21 56.0766 214.492 56.9551 215.05 57.6527C215.608 58.3504 216.403 58.8185 217.284 58.968H218.277H218.94H219.318H219.554C219.92 58.6461 220.217 58.2543 220.428 57.8157C220.639 57.377 220.76 56.9005 220.784 56.4142C220.819 55.7243 220.671 55.0373 220.356 54.4228C220.04 53.8083 219.568 53.2879 218.987 52.9143H218.609H218.041H217.615H216.669L216.48 52.2522Z" fill="#E7B851"/>
</g>
<g style="mix-blend-mode:screen">
<path d="M254.08 58.8263L254.317 59.2047L254.979 59.7722H255.262H255.641H255.925C256.561 59.8842 257.217 59.8099 257.813 59.5582C258.409 59.3065 258.919 58.888 259.283 58.3533C259.708 57.7161 259.934 56.9673 259.934 56.2014C259.934 55.4355 259.708 54.6867 259.283 54.0495L258.857 53.6238L258.1 53.1981H257.485H256.161H255.546L254.789 53.6238L254.364 54.0495C253.925 54.5828 253.637 55.2232 253.529 55.9049C253.421 56.5867 253.497 57.285 253.749 57.9276L254.08 58.8263Z" fill="#EADECF"/>
</g>
<g style="mix-blend-mode:screen">
<path d="M117.018 0.085609V0.700325V1.22065C117.37 1.98749 118.002 2.59072 118.784 2.90718C119.567 3.22365 120.441 3.22938 121.227 2.9232L121.605 2.68679L122.078 2.30849L122.362 1.97739L122.693 1.64629L123.072 1.07877V0.653128V-0.245492V-0.623934V-1.19145V-1.56975C122.875 -2.03909 122.579 -2.46002 122.203 -2.80308C121.827 -3.14614 121.381 -3.40315 120.896 -3.55621C120.428 -3.71308 119.931 -3.7647 119.44 -3.70747C118.95 -3.65025 118.478 -3.48556 118.058 -3.22511L117.301 -2.75213L117.018 -2.37383L116.687 -1.80631V-1.33333V-0.292833L117.018 0.085609Z" fill="#F9E59F"/>
</g>
<g style="mix-blend-mode:screen">
<path d="M257.627 6.70704L256.634 7.65286L256.303 8.12584L256.019 8.83524V9.35556C256.01 9.9233 256.128 10.4859 256.365 11.0017C256.603 11.5175 256.953 11.9733 257.391 12.3352C257.799 12.6386 258.269 12.8506 258.766 12.9567C259.264 13.0628 259.779 13.0605 260.276 12.95H260.654L261.174 12.6663L261.458 12.3824L262.073 11.673V11.2947V10.6798V10.2542C262.085 9.4309 261.835 8.62509 261.359 7.95336C260.883 7.28163 260.205 6.7788 259.425 6.51782H258.715H257.816L257.627 6.70704Z" fill="#F9F6D2"/>
</g>
<g style="mix-blend-mode:screen">
<path d="M182.853 12.2876H183.373H184.13H184.65H184.934C185.489 12.2671 186.029 12.1095 186.508 11.8289C186.987 11.5483 187.388 11.1534 187.677 10.6796V10.1593V9.44988V8.9297L187.204 7.60544V7.17981C186.745 6.53335 186.102 6.0391 185.36 5.76086H184.887H184.366H183.657H183.184L182.285 6.37572L181.954 6.65948L181.576 7.17981V7.69998C181.357 8.08475 181.217 8.50896 181.163 8.94818C181.109 9.3874 181.142 9.83297 181.261 10.2593C181.379 10.6856 181.581 11.0844 181.854 11.4324C182.128 11.7805 182.467 12.0711 182.853 12.2876Z" fill="#DFCBB3"/>
</g>
<g style="mix-blend-mode:screen">
<path d="M329.327 21.7467L329.043 22.0778V22.3142L328.618 23.0709V23.3547V23.7803V24.1114C328.603 24.7517 328.78 25.3818 329.125 25.9211C329.47 26.4604 329.969 26.8843 330.557 27.1384C331.248 27.4575 332.02 27.5604 332.771 27.4339C333.522 27.3073 334.218 26.957 334.766 26.4289L335.097 25.9087L335.381 25.0574V24.4425V23.1655V22.598L334.814 21.8886L334.341 21.5103C333.739 21.1791 333.064 21.0052 332.378 21.0052C331.691 21.0052 331.016 21.1791 330.415 21.5103L329.327 21.7467Z" fill="#53240B"/>
</g>
<g style="mix-blend-mode:screen">
<path d="M195.245 207.522L194.488 208.752V209.414V210.407V211.069L194.772 211.637V212.015V212.535C195.14 213.632 195.792 214.612 196.663 215.373L197.373 215.657H198.461H199.265L200.542 214.9L201.015 214.285L201.44 213.245V212.488V211.779V211.542C201.359 211.012 201.232 210.49 201.062 209.981C200.81 209.115 200.316 208.338 199.637 207.743C198.958 207.148 198.123 206.759 197.231 206.624H196.522L195.623 207.049L195.245 207.522Z" fill="#F9D46B"/>
</g>
<g style="mix-blend-mode:screen">
<path d="M311.733 -5.35346C310.8 -5.96898 309.667 -6.20567 308.564 -6.01552H308.139L307.571 -5.63722L307.193 -5.25878L306.625 -4.36016V-3.93452V-3.27246V-2.84682C306.745 -2.19323 306.986 -1.56763 307.335 -1.00224L307.619 -0.245504L307.95 0.227477L308.896 1.07875L309.369 1.36251H310.173H310.74C311.722 1.19977 312.6 0.656763 313.184 -0.148801C313.768 -0.954364 314.012 -1.95764 313.862 -2.94136C313.685 -3.46451 313.405 -3.9472 313.04 -4.36131C312.674 -4.77543 312.23 -5.11273 311.733 -5.35346Z" fill="#F1E9E1"/>
</g>
<g style="mix-blend-mode:screen">
<path d="M321.192 63.4611V64.1705V64.4542V64.8799V65.1164L321.713 65.7312V65.9677L322.091 66.2515H322.375C322.976 66.4944 323.633 66.5699 324.274 66.47C324.915 66.3701 325.517 66.0985 326.016 65.684C326.489 65.2769 326.855 64.7605 327.083 64.1797C327.311 63.5989 327.394 62.9713 327.324 62.3513C327.254 61.7314 327.034 61.1379 326.682 60.6225C326.331 60.107 325.859 59.6851 325.307 59.3936C324.864 59.1833 324.379 59.0742 323.888 59.0742C323.397 59.0742 322.913 59.1833 322.469 59.3936C321.832 59.8308 321.36 60.4693 321.128 61.2067C320.896 61.9442 320.919 62.738 321.192 63.4611Z" fill="#4B2008"/>
</g>
<g style="mix-blend-mode:screen">
<path d="M278.437 51.4007V51.0224V50.3602L278.154 49.8874L277.822 49.509V48.9414L277.113 47.9009L276.687 47.5227L275.978 47.097H275.41C274.917 47.0702 274.423 47.1469 273.961 47.3222C273.498 47.4974 273.078 47.7673 272.726 48.1147C272.374 48.4621 272.099 48.8792 271.918 49.3392C271.737 49.7992 271.654 50.2921 271.674 50.786L272.289 51.4954V52.1575L273.235 53.3399V53.9074C273.665 54.3575 274.216 54.6733 274.822 54.8164C275.427 54.9595 276.062 54.9238 276.647 54.7135C277.233 54.5032 277.746 54.1274 278.122 53.6317C278.498 53.136 278.723 52.5418 278.768 51.9211L278.437 51.4007Z" fill="#EEE3D8"/>
</g>
<g style="mix-blend-mode:screen">
<path d="M214.399 81.1022L214.825 82.0482L215.109 82.4266L215.582 82.8995L215.96 83.136L216.953 83.5617H217.379H218.041H218.514C219.031 83.3984 219.507 83.1258 219.91 82.7624C220.313 82.3989 220.633 81.9532 220.848 81.4553C221.063 80.9574 221.169 80.4189 221.158 79.8765C221.147 79.3342 221.019 78.8006 220.784 78.3118V78.0281L220.453 77.6498L219.933 77.2241L219.507 76.9876L218.514 76.6566H217.426H216.953L216.007 77.0823L215.629 77.366L215.156 77.8862L214.872 78.2646L214.163 79.3997V79.8727V80.5821L214.399 81.1022Z" fill="#9F5504"/>
</g>
<g style="mix-blend-mode:screen">
<path d="M328.57 73.4403L328.145 73.6768L327.625 74.1498L327.341 74.5281L326.821 75.5213V75.9943V76.7037V77.224C326.975 77.7767 327.25 78.2882 327.627 78.7217C328.003 79.1552 328.471 79.4998 328.996 79.7306H329.375H330.699H331.077H331.361C332.105 79.3189 332.67 78.6472 332.949 77.8443C333.229 77.0415 333.202 76.1638 332.874 75.3794C332.528 74.5774 331.895 73.9339 331.099 73.5751C330.302 73.2163 329.4 73.1681 328.57 73.4403Z" fill="#F9DD85"/>
</g>
<g style="mix-blend-mode:screen">
<path d="M333.3 43.266L332.591 44.4957V45.0632V45.82V46.3403C332.735 46.8865 333.008 47.3903 333.386 47.8099C333.765 48.2294 334.238 48.5525 334.766 48.7522C335.244 48.9309 335.757 48.9983 336.265 48.9491C336.773 48.8999 337.264 48.7356 337.699 48.4685L338.03 48.1847L338.408 47.7591V47.428L338.739 46.5294V46.1037V45.4889V45.0632C338.499 44.2674 338.012 43.5684 337.349 43.0669C336.686 42.5655 335.881 42.2874 335.05 42.2728H334.388L333.584 42.6985L333.3 43.266Z" fill="#662B02"/>
</g>
<g style="mix-blend-mode:screen">
<path d="M292.957 110.047L292.673 110.614H292.389C292.115 111.256 291.985 111.951 292.011 112.648V113.452V113.83L292.342 114.351L292.626 114.635L293.383 115.202H295.132L296.268 113.783V112.601V112.364V110.614L295.085 109.243H293.288L292.531 109.905L292.957 110.047Z" fill="#F9E59F"/>
</g>
<g style="mix-blend-mode:screen">
<path d="M356.049 39.4349L355.623 38.9148L355.34 38.5837C354.796 38.1135 354.144 37.7853 353.443 37.6285C352.741 37.4717 352.012 37.4911 351.32 37.685C350.707 37.9031 350.154 38.26 349.702 38.7277C349.251 39.1954 348.914 39.7612 348.718 40.3809C348.476 41.1833 348.431 42.0323 348.588 42.8558C348.744 43.6793 349.097 44.4528 349.617 45.1104C350.158 45.6724 350.83 46.0917 351.573 46.331C352.316 46.5704 353.106 46.6223 353.874 46.482H354.299L354.867 46.1509L355.198 45.8198L355.86 44.9685V44.5429V43.8807V43.5497V42.9821C356.14 41.9604 356.14 40.8824 355.86 39.8607L356.049 39.4349Z" fill="#F9EEB8"/>
</g>
<g style="mix-blend-mode:screen">
<path d="M350.327 45.8199V46.151V46.624V47.9483V48.3266C350.384 48.9079 350.596 49.4633 350.941 49.9346L351.272 50.313L351.935 50.6913H352.408H353.684H354.016C354.642 50.6388 355.244 50.4271 355.765 50.0765L356.097 49.6982L356.475 49.0833V48.6103V47.3334V46.7659L356.806 46.4348L357.421 45.5362V45.0632V44.4011V43.9281C357.189 43.029 356.715 42.2109 356.049 41.5634L355.387 41.0432H355.009H354.441H353.07H352.644L352.076 41.2796L351.698 41.516C351.218 41.9047 350.829 42.3943 350.559 42.9501C350.29 43.506 350.146 44.1145 350.137 44.7322C350.147 45.1021 350.211 45.4685 350.327 45.8199Z" fill="#793903"/>
</g>
<g style="mix-blend-mode:screen">
<path d="M206.643 220.718V220.197V219.393C206.623 218.841 206.482 218.301 206.228 217.81C205.975 217.319 205.615 216.891 205.177 216.556C204.552 216.045 203.785 215.74 202.981 215.681C202.177 215.622 201.374 215.812 200.681 216.226C199.989 216.639 199.44 217.256 199.111 217.992C198.781 218.728 198.686 219.547 198.839 220.339V220.859L199.123 221.332V221.569L200.211 222.42L200.636 222.657H201.298H201.771H202.906H203.379L203.947 222.326L204.325 221.995L205.177 220.907L206.643 220.718Z" fill="#793903"/>
</g>
<g style="mix-blend-mode:screen">
<path d="M188.812 166.564L189.049 166.281V165.855V165.524V164.673V163.774V163.443C188.486 162.409 187.594 161.592 186.515 161.12C185.436 160.649 184.231 160.551 183.09 160.842L182.38 161.267L181.623 162.166L181.34 162.97V164.531L181.623 165.288L182.286 166.186L182.806 166.564L183.231 166.801C185.785 168.031 187.535 167.983 188.812 166.564Z" fill="#F9E59F"/>
</g>
<g style="mix-blend-mode:screen">
<path d="M346.827 75.6632L346.306 75.3794H345.739C345.255 75.1342 344.72 75.0066 344.178 75.0066C343.636 75.0066 343.101 75.1342 342.617 75.3794L341.813 75.9469V76.1835L341.577 76.5618V76.8455V77.5077V77.7915V78.5009C341.649 79.058 341.854 79.5895 342.176 80.0505C342.497 80.5115 342.924 80.8884 343.421 81.1494C344.022 81.4566 344.686 81.6168 345.36 81.6168C346.035 81.6168 346.699 81.4566 347.3 81.1494C347.78 80.9019 348.191 80.539 348.497 80.0932C348.802 79.6474 348.992 79.1327 349.049 78.5954V77.6023L348.718 76.8455L348.34 76.3254L346.827 75.6632Z" fill="#EADECF"/>
</g>
<g style="mix-blend-mode:screen">
<path d="M236.675 84.129L237.054 83.7034V83.325L237.432 82.4265V82.048V81.0075V80.3455V79.967L237.054 79.4469L236.723 79.1158L235.682 78.5009H235.446C234.972 78.2852 234.452 78.1878 233.932 78.2171H233.317L232.561 78.6901L232.135 79.1631L231.473 80.3927V80.8657V82.048C231.599 82.6121 231.859 83.1379 232.229 83.582C232.599 84.0261 233.069 84.3758 233.601 84.602C234.098 84.7666 234.623 84.8264 235.144 84.7775C235.665 84.7287 236.171 84.5723 236.628 84.3183L236.675 84.129Z" fill="#E7D8C6"/>
</g>
<g style="mix-blend-mode:screen">
<path d="M351.32 26.0032V25.5302L350.988 24.8682L350.705 24.4899L349.853 23.7803L349.428 23.5439L348.766 23.3075H348.245C347.674 23.3314 347.114 23.4741 346.601 23.7265C346.088 23.9789 345.633 24.3356 345.266 24.7736V25.0101V25.3412V25.5776V26.3817V27.3275C345.448 28.1574 345.943 28.8854 346.647 29.3608C347.351 29.8362 348.211 30.0226 349.049 29.8814C349.828 29.6124 350.485 29.0735 350.902 28.3622C351.318 27.6509 351.466 26.8142 351.32 26.0032Z" fill="#F9F6D2"/>
</g>
<g style="mix-blend-mode:screen">
<path d="M287.471 213.954V212.961L287.187 211.637V211.211C286.834 210.091 286.052 209.155 285.011 208.61H284.396H283.261H281.984L281.133 209.083C280.484 209.932 280.195 211.002 280.329 212.062C280.4 212.585 280.575 213.089 280.843 213.544C281.111 213.999 281.467 214.395 281.89 214.711C282.298 215.048 282.771 215.297 283.279 215.442C283.788 215.588 284.322 215.626 284.846 215.555C285.37 215.484 285.874 215.305 286.326 215.029C286.778 214.754 287.167 214.388 287.471 213.954Z" fill="#F9DD85"/>
</g>
<g style="mix-blend-mode:screen">
<path d="M326.679 156.065C326.673 156.554 326.771 157.039 326.967 157.488C327.162 157.936 327.451 158.338 327.814 158.666C328.419 159.289 329.222 159.682 330.085 159.777C330.948 159.871 331.817 159.663 332.543 159.186H332.874L333.253 158.903L333.678 158.383V157.957V157.626C334.002 157.245 334.237 156.797 334.368 156.315C334.498 155.833 334.521 155.328 334.435 154.835C334.283 153.995 333.808 153.248 333.111 152.754C332.392 152.141 331.478 151.805 330.533 151.805C329.588 151.805 328.675 152.141 327.956 152.754C327.506 153.174 327.158 153.69 326.937 154.263C326.716 154.837 326.628 155.453 326.679 156.065Z" fill="#C47F1E"/>
</g>
<g style="mix-blend-mode:screen">
<path d="M282.741 79.0211L283.167 79.494L283.545 79.7777C284.115 80.1997 284.781 80.4726 285.483 80.5717C286.185 80.6708 286.901 80.5931 287.565 80.3454C288.176 80.0979 288.714 79.6986 289.128 79.1855C289.541 78.6725 289.818 78.0624 289.93 77.413C290.135 76.581 290.125 75.7108 289.902 74.8835C289.679 74.0563 289.249 73.2992 288.653 72.6835C288.061 72.1648 287.348 71.8024 286.58 71.629C285.812 71.4555 285.012 71.4766 284.255 71.6903H283.876L283.309 72.1159L283.025 72.447L282.457 73.3457V73.7713V74.4335V75.3793C282.304 76.435 282.435 77.5124 282.836 78.5008L282.741 79.0211Z" fill="#D6BDA1"/>
</g>
<g style="mix-blend-mode:screen">
<path d="M215.96 158.855L214.73 159.612L214.257 160.132L213.832 160.984V161.693V162.308V162.686V163.254C213.652 164.387 213.782 165.547 214.21 166.612L214.73 167.227L215.629 167.794H216.433H217.899L218.656 167.51L219.46 166.801L219.838 166.091V165.429V165.193C219.994 164.683 220.104 164.161 220.169 163.632C220.338 162.745 220.25 161.829 219.914 160.991C219.579 160.153 219.011 159.428 218.277 158.903H217.615H216.622L215.96 158.855Z" fill="#3B1703"/>
</g>
<g style="mix-blend-mode:screen">
<path d="M356.049 60.9547C356.538 60.6933 356.97 60.337 357.319 59.9065C357.668 59.4761 357.928 58.9802 358.083 58.448V57.975V57.2656V56.84L357.563 55.8467L357.279 55.5157L356.759 55.09L356.333 54.8535C355.695 54.7026 355.031 54.7026 354.394 54.8535H353.59H353.022L351.84 55.2792L351.367 55.6103L350.847 56.2251L350.563 56.6981C350.407 57.1639 350.345 57.6557 350.38 58.1456C350.414 58.6355 350.545 59.1138 350.765 59.553C350.984 59.9923 351.288 60.384 351.66 60.7057C352.031 61.0273 352.462 61.2727 352.928 61.4276C353.453 61.5608 354 61.5875 354.536 61.5063C355.072 61.4251 355.587 61.2376 356.049 60.9547Z" fill="#DFCBB3"/>
</g>
<g style="mix-blend-mode:screen">
<path d="M307.713 52.6778L307.997 52.0156V51.7318V51.0224V50.2657V49.9346V49.509V49.2252C307.639 48.6887 307.142 48.2598 306.558 47.9848C305.975 47.7098 305.328 47.5991 304.686 47.6645C304.01 47.7303 303.365 47.9815 302.823 48.3904C302.28 48.7993 301.861 49.3501 301.612 49.9819C301.354 50.4873 301.22 51.0465 301.22 51.6136C301.22 52.1808 301.354 52.7399 301.612 53.2453C301.845 53.6807 302.176 54.0565 302.577 54.3436C302.979 54.6306 303.442 54.8212 303.929 54.9007C304.721 55.0357 305.535 54.8867 306.227 54.4799C306.919 54.0732 307.446 53.4349 307.713 52.6778Z" fill="#F9DD85"/>
</g>
<g style="mix-blend-mode:screen">
<path d="M271.627 101.865L271.248 102.243L270.917 103.047V103.52V104.04L270.586 104.561L270.161 105.743V106.311V107.162L270.397 107.682C270.66 108.102 271.009 108.46 271.422 108.732C271.835 109.004 272.302 109.185 272.791 109.261C273.28 109.337 273.779 109.307 274.256 109.174C274.732 109.04 275.174 108.806 275.552 108.486V107.588L276.12 107.304L276.498 105.838L276.876 105.412C276.984 104.77 276.902 104.112 276.642 103.515C276.381 102.919 275.954 102.412 275.41 102.054C274.884 101.619 274.232 101.366 273.55 101.332C272.868 101.298 272.194 101.485 271.627 101.865Z" fill="#C47F1E"/>
</g>
<g style="mix-blend-mode:screen">
<path d="M358.745 115.77V115.344V114.635V114.114V113.026V112.601L358.319 112.033L357.941 111.702C357.477 111.363 356.942 111.136 356.376 111.037C355.81 110.939 355.229 110.972 354.678 111.135H354.441H354.11L353.495 111.655L353.259 111.939V112.175C352.924 112.964 352.898 113.85 353.188 114.656C353.477 115.463 354.06 116.13 354.819 116.526C355.473 116.816 356.199 116.899 356.901 116.764C357.603 116.628 358.246 116.281 358.745 115.77Z" fill="#6D341B"/>
</g>
<g style="mix-blend-mode:screen">
<path d="M325.685 157.295L325.118 156.68H324.787L324.219 156.443H323.794H322.8H322.327H321.76H321.334L320.814 156.822L320.483 157.2L320.105 157.815V158.241V159.376V159.849V160.511V160.936L320.719 161.788L321.051 162.119L321.618 162.45H322.044H323.084H323.557H324.219H324.645C325.078 162.196 325.453 161.855 325.747 161.448C326.04 161.04 326.245 160.576 326.348 160.085C326.502 159.104 326.264 158.102 325.685 157.295Z" fill="#D59C38"/>
</g>
<g style="mix-blend-mode:screen">
<path d="M360.4 178.72V179.334L360.684 179.713C361.102 180.288 361.661 180.747 362.307 181.045C362.952 181.343 363.664 181.47 364.373 181.415C365.025 181.352 365.65 181.13 366.195 180.766C366.739 180.403 367.186 179.912 367.495 179.334C367.913 178.574 368.132 177.72 368.132 176.851C368.132 175.983 367.913 175.129 367.495 174.368C367.11 173.682 366.546 173.112 365.863 172.721C365.18 172.329 364.403 172.13 363.616 172.145H363.143L362.529 172.382L362.103 172.618L361.346 173.328L361.062 173.706L360.731 174.274V174.652V175.172C360.253 176.122 360.056 177.189 360.164 178.247L360.4 178.72Z" fill="#F9E59F"/>
</g>
<g style="mix-blend-mode:screen">
<path d="M298.112 314.693L296.93 315.45L296.457 316.017L296.079 316.916V317.578V318.24V318.618V319.139C295.945 320.285 296.125 321.445 296.599 322.497L297.119 323.112L298.065 323.632H298.822H300.335L301.045 323.301L301.849 322.544L302.227 321.835V321.125V320.889C302.376 320.38 302.471 319.857 302.511 319.328C302.665 318.427 302.555 317.501 302.194 316.662C301.833 315.823 301.237 315.106 300.477 314.599H299.768H298.774L298.112 314.693Z" fill="#E7B851"/>
</g>
<g style="mix-blend-mode:screen">
<path d="M278.816 34.9422V34.3746V33.949C278.338 33.0435 277.522 32.3634 276.545 32.0571C275.697 31.7834 274.776 31.8353 273.963 32.2024C273.15 32.5695 272.503 33.2257 272.147 34.0435V34.3273V34.7056V35.9827V36.361V36.5975C272.357 37.034 272.654 37.4228 273.02 37.7401C273.386 38.0573 273.813 38.2961 274.275 38.442C274.944 38.6466 275.654 38.6713 276.335 38.5136C277.016 38.3558 277.643 38.0211 278.154 37.5433V37.2122L278.437 36.6921V36.3138V35.3678L278.816 34.9422Z" fill="#3B1703"/>
</g>
<g style="mix-blend-mode:screen">
<path d="M357.61 173.422L358.319 174.179L358.698 174.463L359.265 174.747H359.738H360.779H361.252H361.867H362.292C362.741 174.414 363.114 173.988 363.383 173.498C363.652 173.009 363.813 172.466 363.853 171.909C363.896 171.389 363.825 170.865 363.645 170.375C363.466 169.885 363.182 169.44 362.812 169.071V168.835L362.387 168.551L361.772 168.314H361.299H360.258H359.786L359.171 168.551L358.792 168.787L358.036 169.497L357.752 169.875L357.421 170.537V171.01V172.098V172.571L357.657 173.233L357.61 173.422Z" fill="#F9F6D2"/>
</g>
<g style="mix-blend-mode:screen">
<path d="M362.481 226.771V226.015L362.198 225.163V224.88V224.501V224.265C361.714 223.84 361.119 223.561 360.483 223.46C359.846 223.36 359.195 223.442 358.603 223.697C357.905 224.008 357.315 224.521 356.91 225.17C356.506 225.819 356.305 226.575 356.333 227.339V227.954L356.759 228.71L357.184 229.136L358.319 229.845H358.887H359.786H360.4C361.048 229.612 361.623 229.215 362.071 228.693C362.519 228.171 362.823 227.541 362.954 226.866L362.481 226.771Z" fill="#F9E59F"/>
</g>
<path d="M-283.364 -1340.04L-366.971 -1256.44L1348.65 459.176L1432.26 375.569L-283.364 -1340.04Z" fill="url(#paint0_linear_92_78)"/>
<path d="M-351.932 -1271.46L-366.981 -1256.41L1348.64 459.201L1363.69 444.152L-351.932 -1271.46Z" fill="url(#paint1_linear_92_78)"/>
<path d="M-751.078 -1044.81L-756.296 -1039.59L1067.22 783.909L1072.43 778.692L-751.078 -1044.81Z" fill="url(#paint2_linear_92_78)"/>
<path d="M-505.115 -1300.17L-510.332 -1294.95L1313.18 528.546L1318.4 523.329L-505.115 -1300.17Z" fill="url(#paint3_linear_92_78)"/>
<path d="M-209.506 -1461L-214.723 -1455.78L1608.79 367.716L1614.01 362.499L-209.506 -1461Z" fill="url(#paint4_linear_92_78)"/>
<path d="M-843.268 -1048L-848.486 -1042.78L975.025 780.716L980.242 775.498L-843.268 -1048Z" fill="url(#paint5_linear_92_78)"/>
<path d="M-1032.78 -1043.73L-1038 -1038.51L785.511 784.987L790.728 779.77L-1032.78 -1043.73Z" fill="url(#paint6_linear_92_78)"/>
<path d="M-397.618 -1421.94L-402.835 -1416.72L1420.68 406.779L1425.89 401.561L-397.618 -1421.94Z" fill="url(#paint7_linear_92_78)"/>
<g style="mix-blend-mode:screen">
<path d="M692.178 -291.063C913.805 -69.4384 1078.49 125.134 1060.04 143.674C1041.6 162.213 846.929 -2.51562 625.302 -224.141C403.676 -445.766 238.946 -640.338 257.438 -658.878C275.931 -677.418 470.552 -512.689 692.178 -291.063Z" fill="url(#paint8_radial_92_78)"/>
</g>
<g style="mix-blend-mode:screen">
<path d="M424.959 -255.592C646.585 -33.9669 811.268 160.605 792.823 179.145C774.378 197.685 579.71 32.9558 358.083 -188.669C136.456 -410.294 -28.274 -604.867 -9.7815 -623.406C8.71104 -641.946 203.332 -477.217 424.959 -255.592Z" fill="url(#paint9_radial_92_78)"/>
</g>
<g style="mix-blend-mode:screen">
<path d="M410.297 -240.93C534.921 -116.355 627.525 -6.91388 617.12 3.72754C606.715 14.369 497.321 -78.4715 372.697 -203.094C248.074 -327.717 155.516 -437.347 165.921 -447.752C176.326 -458.157 285.721 -365.553 410.297 -240.93Z" fill="url(#paint10_radial_92_78)"/>
</g>
</g>
</g>
<defs>
<linearGradient id="paint0_linear_92_78" x1="-481.948" y1="-1448.33" x2="1578.12" y2="598.379" gradientUnits="userSpaceOnUse">
<stop stop-color="#F4EFEA"/>
<stop offset="0.06" stop-color="#F3EDE8"/>
<stop offset="0.53" stop-color="#EEE3D8"/>
<stop offset="0.99" stop-color="#E3D1BD"/>
</linearGradient>
<linearGradient id="paint1_linear_92_78" x1="1152.2" y1="247.709" x2="112.999" y2="-791.498" gradientUnits="userSpaceOnUse">
<stop stop-color="#F4E0AE"/>
<stop offset="0.2" stop-color="#EACD8C"/>
<stop offset="0.32" stop-color="#E5C47C"/>
<stop offset="0.36" stop-color="#E0BE77"/>
<stop offset="0.42" stop-color="#D2AD69"/>
<stop offset="0.5" stop-color="#BC9152"/>
<stop offset="0.54" stop-color="#AA7A40"/>
<stop offset="0.62" stop-color="#C09657"/>
<stop offset="0.72" stop-color="#D4AF6B"/>
<stop offset="0.8" stop-color="#E1BF78"/>
<stop offset="0.87" stop-color="#E5C47C"/>
</linearGradient>
<linearGradient id="paint2_linear_92_78" x1="853.314" y1="564.391" x2="-251.232" y2="-540.163" gradientUnits="userSpaceOnUse">
<stop stop-color="#F4E0AE"/>
<stop offset="0.2" stop-color="#EACD8C"/>
<stop offset="0.32" stop-color="#E5C47C"/>
<stop offset="0.36" stop-color="#E0BE77"/>
<stop offset="0.42" stop-color="#D2AD69"/>
<stop offset="0.5" stop-color="#BC9152"/>
<stop offset="0.54" stop-color="#AA7A40"/>
<stop offset="0.62" stop-color="#C09657"/>
<stop offset="0.72" stop-color="#D4AF6B"/>
<stop offset="0.8" stop-color="#E1BF78"/>
<stop offset="0.87" stop-color="#E5C47C"/>
</linearGradient>
<linearGradient id="paint3_linear_92_78" x1="1099.28" y1="309.028" x2="-5.26835" y2="-795.526" gradientUnits="userSpaceOnUse">
<stop stop-color="#F4E0AE"/>
<stop offset="0.2" stop-color="#EACD8C"/>
<stop offset="0.32" stop-color="#E5C47C"/>
<stop offset="0.36" stop-color="#E0BE77"/>
<stop offset="0.42" stop-color="#D2AD69"/>
<stop offset="0.5" stop-color="#BC9152"/>
<stop offset="0.54" stop-color="#AA7A40"/>
<stop offset="0.62" stop-color="#C09657"/>
<stop offset="0.72" stop-color="#D4AF6B"/>
<stop offset="0.8" stop-color="#E1BF78"/>
<stop offset="0.87" stop-color="#E5C47C"/>
</linearGradient>
<linearGradient id="paint4_linear_92_78" x1="1394.85" y1="148.164" x2="290.307" y2="-956.39" gradientUnits="userSpaceOnUse">
<stop stop-color="#F4E0AE"/>
<stop offset="0.2" stop-color="#EACD8C"/>
<stop offset="0.32" stop-color="#E5C47C"/>
<stop offset="0.36" stop-color="#E0BE77"/>
<stop offset="0.42" stop-color="#D2AD69"/>
<stop offset="0.5" stop-color="#BC9152"/>
<stop offset="0.54" stop-color="#AA7A40"/>
<stop offset="0.62" stop-color="#C09657"/>
<stop offset="0.72" stop-color="#D4AF6B"/>
<stop offset="0.8" stop-color="#E1BF78"/>
<stop offset="0.87" stop-color="#E5C47C"/>
</linearGradient>
<linearGradient id="paint5_linear_92_78" x1="760.857" y1="561.331" x2="-343.69" y2="-543.223" gradientUnits="userSpaceOnUse">
<stop stop-color="#F4E0AE"/>
<stop offset="0.2" stop-color="#EACD8C"/>
<stop offset="0.32" stop-color="#E5C47C"/>
<stop offset="0.36" stop-color="#E0BE77"/>
<stop offset="0.42" stop-color="#D2AD69"/>
<stop offset="0.5" stop-color="#BC9152"/>
<stop offset="0.54" stop-color="#AA7A40"/>
<stop offset="0.62" stop-color="#C09657"/>
<stop offset="0.72" stop-color="#D4AF6B"/>
<stop offset="0.8" stop-color="#E1BF78"/>
<stop offset="0.87" stop-color="#E5C47C"/>
</linearGradient>
<linearGradient id="paint6_linear_92_78" x1="571.576" y1="565.502" x2="-532.97" y2="-539.052" gradientUnits="userSpaceOnUse">
<stop stop-color="#F4E0AE"/>
<stop offset="0.2" stop-color="#EACD8C"/>
<stop offset="0.32" stop-color="#E5C47C"/>
<stop offset="0.36" stop-color="#E0BE77"/>
<stop offset="0.42" stop-color="#D2AD69"/>
<stop offset="0.5" stop-color="#BC9152"/>
<stop offset="0.54" stop-color="#AA7A40"/>
<stop offset="0.62" stop-color="#C09657"/>
<stop offset="0.72" stop-color="#D4AF6B"/>
<stop offset="0.8" stop-color="#E1BF78"/>
<stop offset="0.87" stop-color="#E5C47C"/>
</linearGradient>
<linearGradient id="paint7_linear_92_78" x1="1206.47" y1="187.428" x2="101.927" y2="-917.126" gradientUnits="userSpaceOnUse">
<stop stop-color="#F4E0AE"/>
<stop offset="0.2" stop-color="#EACD8C"/>
<stop offset="0.32" stop-color="#E5C47C"/>
<stop offset="0.36" stop-color="#E0BE77"/>
<stop offset="0.42" stop-color="#D2AD69"/>
<stop offset="0.5" stop-color="#BC9152"/>
<stop offset="0.54" stop-color="#AA7A40"/>
<stop offset="0.62" stop-color="#C09657"/>
<stop offset="0.72" stop-color="#D4AF6B"/>
<stop offset="0.8" stop-color="#E1BF78"/>
<stop offset="0.87" stop-color="#E5C47C"/>
</linearGradient>
<radialGradient id="paint8_radial_92_78" cx="0" cy="0" r="1" gradientUnits="userSpaceOnUse" gradientTransform="translate(506.742 -105.523) rotate(-44.9998) scale(45.4149 567.686)">
<stop stop-color="#8C4703"/>
<stop offset="0.09" stop-color="#7B3F03"/>
<stop offset="0.49" stop-color="#391D01"/>
<stop offset="0.78" stop-color="#100800"/>
<stop offset="0.93"/>
</radialGradient>
<radialGradient id="paint9_radial_92_78" cx="0" cy="0" r="1" gradientUnits="userSpaceOnUse" gradientTransform="translate(245.505 -76.0469) rotate(-44.9998) scale(45.4149 567.686)">
<stop stop-color="#8C4703"/>
<stop offset="0.09" stop-color="#7B3F03"/>
<stop offset="0.49" stop-color="#391D01"/>
<stop offset="0.78" stop-color="#100800"/>
<stop offset="0.93"/>
</radialGradient>
<radialGradient id="paint10_radial_92_78" cx="0" cy="0" r="1" gradientUnits="userSpaceOnUse" gradientTransform="translate(636.413 -500.782) rotate(-44.9998) scale(28.3914 317.984)">
<stop stop-color="#F9EEB8"/>
<stop offset="0.04" stop-color="#EBE1AE"/>
<stop offset="0.23" stop-color="#A59D7A"/>
<stop offset="0.41" stop-color="#6A654E"/>
<stop offset="0.58" stop-color="#3C3A2D"/>
<stop offset="0.72" stop-color="#1B1A14"/>
<stop offset="0.85" stop-color="#070705"/>
<stop offset="0.93"/>
</radialGradient>
<radialGradient id="paint11_radial_92_78" cx="0" cy="0" r="1" gradientUnits="userSpaceOnUse" gradientTransform="translate(207.188 205.867) rotate(-44.9998) scale(45.4149 567.686)">
<stop stop-color="#8C4703"/>
<stop offset="0.09" stop-color="#7B3F03"/>
<stop offset="0.49" stop-color="#391D01"/>
<stop offset="0.78" stop-color="#100800"/>
<stop offset="0.93"/>
</radialGradient>
<radialGradient id="paint12_radial_92_78" cx="0" cy="0" r="1" gradientUnits="userSpaceOnUse" gradientTransform="translate(579.656 -201.387) rotate(-44.9998) scale(28.3914 317.984)">
<stop stop-color="#F9EEB8"/>
<stop offset="0.04" stop-color="#EBE1AE"/>
<stop offset="0.23" stop-color="#A59D7A"/>
<stop offset="0.41" stop-color="#6A654E"/>
<stop offset="0.58" stop-color="#3C3A2D"/>
<stop offset="0.72" stop-color="#1B1A14"/>
<stop offset="0.85" stop-color="#070705"/>
<stop offset="0.93"/>
</radialGradient>
<clipPath id="clip0_92_78">
<rect width="364" height="364" fill="white"/>
</clipPath>
</defs>
</svg>
