<svg width="62" height="77" viewBox="0 0 62 77" fill="none" xmlns="http://www.w3.org/2000/svg">
<path d="M11.6722 46.6162L1.15352 65.7171C1.03899 65.925 0.986755 66.1603 1.00285 66.396C1.01895 66.6317 1.10273 66.8582 1.24449 67.0492C1.38626 67.2402 1.58024 67.388 1.80404 67.4755C2.02784 67.5631 2.27233 67.5868 2.50927 67.5439L11.9105 65.8491C12.1967 65.7975 12.4922 65.8433 12.7483 65.9788C13.0043 66.1143 13.2055 66.3315 13.3185 66.5944L17.0323 75.2343C17.1259 75.4519 17.2803 75.6391 17.4777 75.7743C17.6751 75.9095 17.9075 75.9872 18.148 75.9985C18.3886 76.0099 18.6275 75.9543 18.8372 75.8382C19.0469 75.7221 19.2188 75.5503 19.3332 75.3426L26.6088 62.1301M54.7727 54.6875L60.8465 65.7171C60.961 65.925 61.0132 66.1604 60.9971 66.3961C60.981 66.6318 60.8973 66.8582 60.7555 67.0492C60.6137 67.2402 60.4197 67.388 60.1959 67.4756C59.9721 67.5631 59.7277 67.5868 59.4907 67.5439L50.0866 65.8491C49.8004 65.7975 49.5049 65.8433 49.2488 65.9788C48.9928 66.1143 48.7916 66.3315 48.6786 66.5944L44.9648 75.2344C44.8712 75.4519 44.7168 75.6391 44.5194 75.7743C44.322 75.9095 44.0896 75.9873 43.8491 75.9986C43.6085 76.0099 43.3696 75.9543 43.1599 75.8382C42.9502 75.7222 42.7782 75.5503 42.6639 75.3426L32.3834 56.6699M58.103 23.1565L56.6611 27.5087C56.3531 28.4364 56.3531 29.436 56.6611 30.3637L58.103 34.715C58.4104 35.6426 58.4104 36.6419 58.1031 37.5695C57.7957 38.4972 57.1967 39.3056 56.3919 39.879L52.6151 42.5688C51.81 43.1422 51.2106 43.9509 50.903 44.8788L49.461 49.2301C49.1538 50.1579 48.5547 50.9666 47.7497 51.54C46.9448 52.1134 45.9753 52.4222 44.9803 52.4221H40.3136C39.3185 52.4219 38.3489 52.7307 37.5439 53.3041L33.7672 55.9939C32.9623 56.5673 31.993 56.8762 30.9981 56.8762C30.0031 56.8762 29.0338 56.5673 28.2289 55.9939L24.4522 53.3041C23.6475 52.7308 22.6783 52.422 21.6835 52.4221H17.0158C16.0209 52.4221 15.0514 52.1132 14.2465 51.5398C13.4416 50.9664 12.8425 50.1578 12.5351 49.2301L11.0931 44.8788C10.7855 43.9511 10.1866 43.1426 9.38197 42.5688L5.60523 39.879C4.80025 39.3058 4.20104 38.4974 3.89347 37.5697C3.58591 36.642 3.58577 35.6427 3.89309 34.715L5.33601 30.3637C5.64298 29.4358 5.64298 28.4366 5.33601 27.5087L3.89309 23.1565C3.58562 22.2288 3.58567 21.2294 3.89325 20.3017C4.20082 19.374 4.80013 18.5656 5.60523 17.9925L9.38197 15.3027C10.1865 14.7293 10.7855 13.9211 11.0931 12.9937L12.5351 8.64141C12.8436 7.71413 13.4435 6.90636 14.2489 6.33382C15.0543 5.76129 16.0239 5.45335 17.0188 5.45413H21.6913C22.6859 5.45373 23.655 5.145 24.4599 4.5721L28.2367 1.88233C29.0415 1.30887 30.0109 1 31.0058 1C32.0007 1 32.9701 1.30887 33.7749 1.88233L37.5517 4.5721C38.3569 5.14519 39.3263 5.45393 40.3213 5.45413H44.988C45.9829 5.45407 46.9522 5.76278 47.7571 6.33602C48.5621 6.90926 49.1612 7.7176 49.4688 8.64521L50.9107 12.9975C51.2184 13.9251 51.8177 14.7334 52.6228 15.3065L56.3996 17.9963C57.2022 18.5704 57.7992 19.3786 58.1052 20.3054C58.4111 21.2322 58.4103 22.2301 58.103 23.1565ZM41.801 34.7302C41.801 38.9702 36.965 42.4074 30.9995 42.4074C25.034 42.4074 20.198 38.9702 20.198 34.7302C20.198 30.4902 25.034 27.053 30.9995 27.053C36.965 27.053 41.801 30.4902 41.801 34.7302ZM23.4215 21.4403C24.2394 23.7862 23.3081 26.2222 21.3414 26.8812C19.3748 27.5403 17.1175 26.1728 16.2997 23.8268C15.4818 21.4809 16.4131 19.0449 18.3798 18.3858C20.3464 17.7268 22.6037 19.0943 23.4215 21.4403ZM43.6248 18.3952C45.5914 19.0542 46.5227 21.4902 45.7049 23.8362C44.8871 26.1821 42.6298 27.5496 40.6631 26.8906C38.6965 26.2316 37.7652 23.7956 38.583 21.4496C39.4009 19.1037 41.6581 17.7362 43.6248 18.3952ZM34.7628 19.954C34.7628 22.4332 33.0779 24.443 30.9996 24.443C28.9212 24.443 27.2364 22.4332 27.2364 19.954C27.2364 17.4748 28.9212 15.465 30.9996 15.465C33.0779 15.465 34.7628 17.4748 34.7628 19.954Z" stroke="#222220" stroke-width="2" stroke-linecap="round" stroke-linejoin="round"/>
</svg>
