<svg width="70" height="70" viewBox="0 0 70 70" fill="none" xmlns="http://www.w3.org/2000/svg">
<path d="M25.9446 29.2789L45.9223 9.30133C46.2187 9.00493 46.5705 8.76981 46.9578 8.6094C47.345 8.44899 47.7601 8.36643 48.1792 8.36643C48.5984 8.36643 49.0134 8.44899 49.4007 8.6094C49.7879 8.76981 50.1398 9.00493 50.4362 9.30133L60.7029 19.5638C61.3011 20.1626 61.6371 20.9744 61.6371 21.8208C61.6371 22.6671 61.3011 23.4789 60.7029 24.0777L21.8288 62.951C21.5324 63.2473 21.1805 63.4825 20.7933 63.6429C20.406 63.8033 19.991 63.8858 19.5718 63.8858C19.1527 63.8858 18.7376 63.8033 18.3504 63.6429C17.9631 63.4825 17.6113 63.2473 17.3149 62.951L7.04815 52.6893C6.75175 52.3929 6.51664 52.0411 6.35623 51.6538C6.19582 51.2666 6.11326 50.8515 6.11326 50.4324C6.11326 50.0132 6.19582 49.5982 6.35623 49.2109C6.51664 48.8237 6.75175 48.4718 7.04815 48.1754L15.6193 39.6042M19.0971 36.1266L22.164 33.0596M27.8286 56.9477L24.53 53.6491M34.5447 50.2308L31.2461 46.9322M47.9777 36.7987L44.6791 33.4992M54.6938 30.0818L51.3951 26.7831M41.2616 43.5148L37.9622 40.2161M7.53701 62.463L1 69M69 14.4033L55.5967 1M5.68602 56.6119L8.32634 53.9716L16.0277 61.6729L13.3874 64.3132C12.8569 64.8437 12.1375 65.1417 11.3873 65.1417C10.6372 65.1417 9.91772 64.8437 9.38728 64.3133L5.68542 60.6114C5.15497 60.0809 4.85697 59.3615 4.85697 58.6114C4.85697 57.8612 5.15497 57.1418 5.68542 56.6113L5.68602 56.6119ZM52.6796 11.5444L59.4106 4.8134L65.1869 10.5897L58.4559 17.3207L52.6796 11.5444Z" stroke="black" stroke-width="2" stroke-linecap="round" stroke-linejoin="round"/>
</svg>
