<svg width="82" height="69" viewBox="0 0 82 69" fill="none" xmlns="http://www.w3.org/2000/svg">
<path d="M16.1078 15.6031L14.7003 16.4286M10.4398 18.9276L1 24.4653L7.79088 34.8174L40.9987 15.8083L74.2091 34.8157L81 24.4636C81 24.4636 41.0705 1.04672 40.9987 1C40.9624 1.02423 30.6082 7.09757 20.1831 13.2124M69.1338 51.1762V31.9109M12.8663 31.9109V62.4645C12.8662 63.12 12.9952 63.769 13.2459 64.3746C13.4966 64.9802 13.8641 65.5304 14.3275 65.9939C14.7909 66.4573 15.341 66.8249 15.9465 67.0757C16.5519 67.3265 17.2008 67.4555 17.8561 67.4554H20.7282C22.0967 67.4554 23.4092 66.9116 24.377 65.9437C25.3447 64.9757 25.8884 63.6629 25.8884 62.2941V43.4735C25.8884 42.2605 26.3702 41.0971 27.2277 40.2394C28.0853 39.3816 29.2484 38.8997 30.4612 38.8997H51.5388C52.7516 38.8997 53.9148 39.3816 54.7723 40.2394C55.6299 41.0971 56.1117 42.2605 56.1117 43.4735V55.7336M74.518 58.1338C74.9616 57.597 75.2754 56.9651 75.435 56.2873C75.5947 55.6094 75.5958 54.9038 75.4384 54.2254C75.1855 53.1479 74.5454 52.2009 73.6399 51.5647C72.7343 50.9285 71.6266 50.6475 70.5274 50.7751C69.4282 50.9026 68.4142 51.4299 67.6784 52.2566C66.9426 53.0833 66.5362 54.1517 66.5367 55.2586C66.5367 55.4186 66.5471 55.7336 66.5471 55.7336H50.0051C50.0051 55.7336 50.0198 55.3382 50.0146 55.1357C49.9523 52.8055 48.0491 50.8612 45.7212 50.754C44.8469 50.7124 43.9794 50.9264 43.2247 51.3697C42.4699 51.813 41.8605 52.4665 41.4708 53.2504C41.0811 54.0344 40.9281 54.9148 41.0303 55.7843C41.1325 56.6538 41.4855 57.4747 42.0463 58.1468C42.3281 58.4962 42.4809 58.9321 42.4789 59.381C42.4768 59.8299 42.3201 60.2643 42.0351 60.6111C41.5914 61.1479 41.2775 61.7798 41.1178 62.4577C40.9582 63.1356 40.9571 63.8412 41.1146 64.5195C41.3675 65.5971 42.0076 66.544 42.9132 67.1802C43.8187 67.8164 44.9265 68.0975 46.0257 67.9699C47.1249 67.8423 48.1389 67.3151 48.8747 66.4884C49.6105 65.6617 50.0168 64.5933 50.0163 63.4864C50.0163 63.3263 50.0051 63.0114 50.0051 63.0114H66.5471C66.5471 63.0114 66.5333 63.4068 66.5385 63.6093C66.5999 65.9386 68.5013 67.882 70.8275 67.991C71.7021 68.0331 72.5699 67.8195 73.3251 67.3765C74.0803 66.9334 74.6902 66.28 75.0803 65.4961C75.4705 64.7121 75.624 63.8315 75.5221 62.9617C75.4203 62.092 75.0674 61.2707 74.5067 60.5982C74.2249 60.2488 74.0721 59.8129 74.0742 59.364C74.0762 58.9151 74.233 58.4806 74.518 58.1338Z" stroke="black" stroke-width="2" stroke-linecap="round" stroke-linejoin="round"/>
</svg>
