<svg width="130" height="133" viewBox="0 0 130 133" fill="none" xmlns="http://www.w3.org/2000/svg">
<g clip-path="url(#clip0_29_76)">
<g style="mix-blend-mode:screen">
<g style="mix-blend-mode:screen">
<path d="M104.414 30.1166L103.912 29.8752H103.634H103.262L103.002 29.9867L102.798 30.1352H102.649L102.445 30.2281C102.035 30.408 101.682 30.697 101.424 31.0636L101.331 31.3608V31.7879L101.424 32.085L101.777 32.5492L102.037 32.7349L102.445 32.8463H102.761H103.021H103.114L103.708 32.6606C104.039 32.5292 104.326 32.3053 104.533 32.0155C104.74 31.7258 104.86 31.3824 104.878 31.0265V30.748L104.674 30.4137L104.414 30.1166Z" fill="#53240B"/>
</g>
<g style="mix-blend-mode:screen">
<path d="M52.4192 10.0618L52.2706 10.3032V10.4146V10.5817V11.1388V11.3245V11.4359C52.3825 11.6654 52.5569 11.8585 52.7737 11.9932C52.9905 12.1279 53.241 12.1986 53.4962 12.1973C53.7592 12.1996 54.0182 12.1321 54.2465 12.0016C54.4749 11.8711 54.6646 11.6823 54.7961 11.4545C54.9149 11.2612 54.9853 11.0422 55.0015 10.8159C55.0177 10.5897 54.9791 10.3628 54.8889 10.1547C54.8216 9.97477 54.7124 9.81354 54.5703 9.68436C54.4282 9.55517 54.2573 9.46177 54.0719 9.41189C53.7646 9.29916 53.4266 9.30305 53.122 9.42283C52.8174 9.54262 52.5674 9.76996 52.4192 10.0618Z" fill="#9F5504"/>
</g>
<g style="mix-blend-mode:screen">
<path d="M59.7913 8.09385V8.35382V8.55808C59.8629 8.88283 60.0578 9.16706 60.335 9.35071C60.6122 9.53436 60.95 9.60304 61.2769 9.54225H61.444L61.6483 9.43084L61.7783 9.31943L61.9268 9.20802L62.1125 9.02232V8.87376L62.2611 8.53953V8.39097V8.001C62.2175 7.80935 62.1359 7.6284 62.0211 7.46891C61.9062 7.30941 61.7605 7.17463 61.5926 7.07254C61.4205 6.97939 61.231 6.92305 61.036 6.90706C60.841 6.89108 60.6448 6.9158 60.4598 6.97968L60.1442 7.10968L59.9956 7.22109L59.8099 7.42536V7.59247L59.6799 8.001L59.7913 8.09385Z" fill="#E3D1BD"/>
</g>
<g style="mix-blend-mode:screen">
<path d="M103.838 23.2088C103.952 23.3948 104.103 23.5551 104.282 23.6798C104.461 23.8044 104.664 23.8906 104.878 23.933H105.064H105.324H105.509L105.862 23.6915L105.992 23.5616L106.159 23.3573V23.1902C106.212 22.9391 106.212 22.6799 106.159 22.4288V22.1132V21.8903L105.955 21.4447L105.825 21.259L105.565 21.0547H105.361C105.168 20.9989 104.966 20.9827 104.767 21.0071C104.568 21.0315 104.376 21.096 104.202 21.1966C104.029 21.2973 103.877 21.432 103.757 21.5927C103.637 21.7534 103.551 21.9368 103.504 22.1317C103.487 22.5186 103.605 22.8993 103.838 23.2088Z" fill="#D59C38"/>
</g>
<g style="mix-blend-mode:screen">
<path d="M130.541 66.1411L130.336 66.2339H130.188C129.893 66.5129 129.708 66.8886 129.668 67.2924C129.649 67.6427 129.76 67.9876 129.979 68.2615C130.198 68.5354 130.511 68.7192 130.856 68.7779H131.246H131.506H131.655H131.748C131.891 68.6515 132.008 68.4977 132.091 68.3255C132.174 68.1532 132.221 67.9661 132.23 67.7752C132.244 67.5043 132.186 67.2346 132.062 66.9934C131.938 66.7521 131.753 66.5478 131.525 66.4011H131.376H131.153H130.986H130.615L130.541 66.1411Z" fill="#E7B851"/>
</g>
<g style="mix-blend-mode:screen">
<path d="M127.978 15.02L128.09 15.2614L128.201 15.41C128.351 15.5687 128.532 15.6938 128.734 15.777C128.936 15.8602 129.153 15.8997 129.371 15.8928C129.578 15.8761 129.779 15.8162 129.961 15.7171C130.143 15.6179 130.303 15.4817 130.429 15.3171L130.522 15.15V14.8715V14.6858V14.2773V14.1101L130.392 13.8873L130.281 13.7387L129.984 13.4788H129.798H129.538H129.352H128.925H128.739L128.498 13.5902L128.349 13.7202L128.09 14.0358L127.997 14.1844L127.904 14.4258V15.0386L127.978 15.02Z" fill="#F9E59F"/>
</g>
<g style="mix-blend-mode:screen">
<path d="M93.0122 9.3002L93.1793 9.17023L93.365 8.9474L93.4764 8.7617C93.601 8.58554 93.6783 8.3804 93.7011 8.16585C93.7238 7.95131 93.6912 7.73449 93.6064 7.53612L93.495 7.35044L93.2721 7.14618L93.105 7.05333L92.5851 6.86763H92.4922C92.1831 6.85404 91.8776 6.93855 91.6194 7.10904L91.4709 7.22045L91.3595 7.38756L91.2295 7.64753V7.83324V8.44603V8.68744L91.3409 8.87311C91.5242 9.13016 91.7926 9.31406 92.0984 9.39223C92.4043 9.4704 92.728 9.43779 93.0122 9.3002Z" fill="#D6BDA1"/>
</g>
<g style="mix-blend-mode:screen">
<path d="M111.656 22.9491V23.0976V23.2833V23.8033V23.9518C111.715 24.1737 111.838 24.3737 112.008 24.5275L112.176 24.6389L112.436 24.7317H112.64H113.141H113.29C113.525 24.6678 113.737 24.5391 113.903 24.3603V24.1932L114.014 23.9332V23.729V23.2276V22.9491L114.107 22.7819L114.274 22.392V22.2063V21.9277V21.7421C114.102 21.3618 113.817 21.044 113.457 20.8322L113.16 20.665H113.011H112.603L112.231 20.7579H112.083L111.879 20.8879L111.767 20.9993C111.61 21.1847 111.496 21.402 111.432 21.6361C111.368 21.8702 111.355 22.1155 111.396 22.3548C111.434 22.5708 111.523 22.7746 111.656 22.9491Z" fill="#EADECF"/>
</g>
<g style="mix-blend-mode:screen">
<path d="M91.4891 45.6593V45.9006V46.1049C91.6275 46.406 91.8756 46.6428 92.1828 46.7671C92.49 46.8914 92.833 46.8936 93.1418 46.7734L93.2903 46.6806L93.476 46.532L93.5875 46.402L93.7174 46.272L93.866 46.0492V45.8821V45.5293V45.3807V45.1579V45.0093C93.7889 44.8251 93.6725 44.6598 93.525 44.5251C93.3774 44.3904 93.2023 44.2895 93.0118 44.2294C92.828 44.1678 92.6328 44.1476 92.4402 44.17C92.2476 44.1925 92.0624 44.2571 91.8976 44.3594L91.6005 44.5451L91.4891 44.6936L91.3591 44.9165V45.1022V45.5107L91.4891 45.6593Z" fill="#F9E59F"/>
</g>
<g style="mix-blend-mode:screen">
<path d="M99.7711 30.0979L99.344 29.8936H99.1769H98.9912V29.9865L98.8427 29.8751C98.5011 29.8548 98.1622 29.946 97.877 30.135C97.6558 30.3002 97.492 30.5306 97.4087 30.7938C97.3254 31.057 97.3269 31.3397 97.4128 31.602V31.7691L97.5799 31.9734L97.7285 32.1034L98.0999 32.3077H98.2299H98.4341H98.5641C98.955 32.3653 99.3532 32.2723 99.6783 32.0477C99.9036 31.8892 100.074 31.665 100.168 31.4058C100.261 31.1465 100.271 30.8648 100.198 30.5993L100.087 30.4136L99.8825 30.1722L99.7711 30.0979Z" fill="#F9F6D2"/>
</g>
<g style="mix-blend-mode:screen">
<path d="M109.836 26.3102H110.059H110.282C110.492 26.351 110.709 26.3421 110.916 26.284C111.122 26.226 111.312 26.1205 111.47 25.9759L111.712 25.6788V25.5674V25.4003V25.2889V25.0103V24.8061V24.6947C111.641 24.4877 111.519 24.3023 111.356 24.1561C111.194 24.0098 110.996 23.9075 110.783 23.859C110.525 23.8036 110.258 23.8101 110.003 23.8779C109.748 23.9456 109.513 24.0728 109.316 24.249C109.156 24.3881 109.032 24.5637 108.955 24.7609C108.877 24.958 108.848 25.171 108.871 25.3817V25.4931V25.6417V25.7531L109.056 26.0317L109.242 26.1802L109.836 26.3102Z" fill="#8C4703"/>
</g>
<g style="mix-blend-mode:screen">
<path d="M77.9524 4.78821L77.6367 4.63965H77.2653H77.0796L76.5411 4.80677L76.3183 4.97391L76.0768 5.271L75.9654 5.51241V5.60526C75.9073 5.80178 75.8911 6.00828 75.9177 6.21147C75.9443 6.41467 76.0132 6.61005 76.1199 6.78499C76.2266 6.95994 76.3688 7.11057 76.5373 7.22721C76.7058 7.34385 76.8968 7.4239 77.0982 7.46219H77.2839H77.5253H77.6924L78.0266 7.27648L78.1752 7.16507L78.3423 6.97937V6.81225C78.5163 6.4806 78.5724 6.09973 78.5016 5.732C78.4307 5.36427 78.2371 5.03149 77.9524 4.78821Z" fill="#EADECF"/>
</g>
<g style="mix-blend-mode:screen">
<path d="M117.338 50.4503H117.542H117.839H118.044H118.155C118.373 50.4422 118.585 50.3803 118.773 50.2702C118.961 50.16 119.119 50.0049 119.232 49.8189V49.6146V49.3361V49.1319L119.046 48.6119V48.4448C118.866 48.191 118.614 47.9969 118.322 47.8877H118.137H117.932H117.654H117.468L117.115 48.1291L116.985 48.2405L116.837 48.4448V48.649C116.751 48.8001 116.696 48.9667 116.674 49.1391C116.653 49.3116 116.666 49.4865 116.713 49.6539C116.759 49.8213 116.839 49.9778 116.946 50.1145C117.053 50.2512 117.186 50.3653 117.338 50.4503Z" fill="#DFCBB3"/>
</g>
<g style="mix-blend-mode:screen">
<path d="M106.4 16.2082V16.4311V16.8025V17.0439L106.623 17.5267L106.79 17.7124L107.05 17.8981V18.0466V18.3623L107.162 18.5666L107.459 18.9194H107.552C107.745 19.1371 108.007 19.2814 108.294 19.3279C108.588 19.3785 108.89 19.322 109.146 19.1687C109.402 19.0153 109.594 18.7753 109.687 18.4923V18.3251V17.9166L109.557 17.5267V17.3967L109.446 17.2667L109.706 17.0624C109.907 16.8901 110.069 16.6767 110.182 16.4365C110.294 16.1963 110.353 15.9348 110.356 15.6697V15.4098L110.151 15.0941L109.947 14.9084L109.464 14.667H109.186H108.814L108.573 14.7598C108.409 14.8581 108.234 14.939 108.053 15.0013C107.379 15.1995 106.794 15.6262 106.4 16.2082Z" fill="#EEE3D8"/>
</g>
<g style="mix-blend-mode:screen">
<path d="M116.985 29.541L116.725 29.671L116.577 29.7824C116.388 29.9617 116.248 30.1851 116.168 30.4324C116 30.6791 115.926 30.9781 115.96 31.2747C115.995 31.5713 116.134 31.8457 116.354 32.0479C116.636 32.3109 117.008 32.4569 117.394 32.4564C117.56 32.4581 117.724 32.4261 117.877 32.3622C118.031 32.2984 118.169 32.2041 118.285 32.0851L118.434 31.7508V31.5651V31.4536V31.2123V31.0451V30.5438C118.417 30.3142 118.347 30.0917 118.229 29.8938L118.044 29.7267L117.728 29.5596H117.486H117.189L116.985 29.541Z" fill="#D59C38"/>
</g>
<g style="mix-blend-mode:screen">
<path d="M122.203 127.104L121.906 127.587V127.847V128.237V128.496L122.018 128.719V128.868V129.072C122.162 129.503 122.418 129.887 122.76 130.186L123.039 130.298H123.466H123.782L124.283 130.001L124.469 129.759L124.636 129.351V129.054V128.775V128.682C124.604 128.474 124.554 128.269 124.487 128.069C124.389 127.729 124.195 127.424 123.928 127.19C123.661 126.957 123.334 126.804 122.983 126.751H122.705L122.352 126.918L122.203 127.104Z" fill="#F9D46B"/>
</g>
<g style="mix-blend-mode:screen">
<path d="M88.2209 14.0914L88.1095 14.2957V14.4628C88.0526 14.8595 88.1453 15.2632 88.3695 15.5955C88.5724 15.8825 88.8739 16.0847 89.2164 16.1634C89.5589 16.2422 89.9185 16.1921 90.2264 16.0226L90.3378 15.9112L90.6349 15.5212V15.3727V15.2613C90.6977 14.8845 90.6111 14.4981 90.3935 14.1842C90.2375 13.9611 90.0238 13.7846 89.7752 13.6734C89.5267 13.5622 89.2526 13.5205 88.9822 13.5529H88.8151L88.778 13.6643L88.648 13.7572L88.3695 13.9985L88.2209 14.0914Z" fill="#E7D8C6"/>
</g>
<g style="mix-blend-mode:screen">
<path d="M129.724 77.4684L129.891 77.8398L130.002 77.9884L130.188 78.174L130.336 78.2669L130.726 78.434H130.893H131.153H131.339C131.542 78.3699 131.729 78.2629 131.887 78.1202C132.045 77.9775 132.171 77.8025 132.256 77.607C132.34 77.4115 132.382 77.2001 132.377 76.9871C132.373 76.7742 132.323 76.5647 132.23 76.3728V76.2614L132.1 76.1128L131.896 75.9457L131.729 75.8528L131.339 75.7229H130.912H130.726L130.355 75.89L130.206 76.0014L130.021 76.2057L129.909 76.3542L129.631 76.7999V76.9856V77.2641L129.724 77.4684Z" fill="#9F5504"/>
</g>
<g style="mix-blend-mode:screen">
<path d="M126.678 132.285V132.081V131.765C126.671 131.548 126.615 131.336 126.515 131.143C126.416 130.951 126.275 130.782 126.103 130.651C125.857 130.45 125.556 130.331 125.241 130.307C124.925 130.284 124.609 130.359 124.338 130.521C124.066 130.683 123.85 130.926 123.721 131.215C123.592 131.504 123.554 131.825 123.614 132.136V132.341L123.726 132.526V132.619L124.153 132.953L124.32 133.046H124.58H124.766H125.211H125.397L125.62 132.916L125.768 132.786L126.103 132.359L126.678 132.285Z" fill="#793903"/>
</g>
<g style="mix-blend-mode:screen">
<path d="M119.678 111.023L119.77 110.912V110.745V110.615V110.281V109.928V109.798C119.549 109.392 119.199 109.071 118.776 108.886C118.352 108.701 117.879 108.662 117.431 108.776L117.152 108.944L116.855 109.296L116.744 109.612V110.225L116.855 110.522L117.115 110.875L117.319 111.023L117.486 111.116C118.489 111.599 119.176 111.58 119.678 111.023Z" fill="#F9E59F"/>
</g>
<g style="mix-blend-mode:screen">
<path d="M130.987 41.9267V41.6853H130.894H131.005C131.071 41.4169 131.071 41.1366 131.005 40.8682L130.875 40.5711L130.764 40.4412L130.597 40.2926H130.467L130.114 40.144L129.482 40.404L129.204 41.0725L129.39 41.4996V41.611L129.52 42.2981L130.114 42.688L130.801 42.5394L131.024 42.2052L130.987 41.9267Z" fill="#F9F6D2"/>
</g>
<g style="mix-blend-mode:screen">
<path d="M130.336 107.996L129.854 108.293L129.668 108.498L129.501 108.832V109.11V109.352V109.5V109.723C129.43 110.168 129.481 110.624 129.649 111.041L129.854 111.283L130.206 111.506H130.522H131.098L131.395 111.394L131.71 111.116L131.859 110.837V110.577V110.484C131.92 110.284 131.964 110.079 131.989 109.872C132.055 109.523 132.021 109.164 131.889 108.835C131.757 108.506 131.534 108.221 131.246 108.015H130.986H130.596L130.336 107.996Z" fill="#3B1703"/>
</g>
<path d="M-65.7107 -480.509L-98.5371 -447.683L575.06 225.91L607.887 193.084L-65.7107 -480.509Z" fill="url(#paint0_linear_29_76)"/>
<path d="M-92.6324 -453.582L-98.5411 -447.673L575.056 225.919L580.965 220.011L-92.6324 -453.582Z" fill="url(#paint1_linear_29_76)"/>
<path d="M-249.347 -364.592L-251.396 -362.544L464.561 353.408L466.609 351.36L-249.347 -364.592Z" fill="url(#paint2_linear_29_76)"/>
<path d="M-152.776 -464.854L-154.824 -462.805L561.133 253.146L563.181 251.098L-152.776 -464.854Z" fill="url(#paint3_linear_29_76)"/>
<path d="M-36.7121 -528L-38.7605 -525.952L677.196 190L679.244 187.952L-36.7121 -528Z" fill="url(#paint4_linear_29_76)"/>
<path d="M-285.543 -365.846L-287.592 -363.797L428.365 352.154L430.413 350.106L-285.543 -365.846Z" fill="url(#paint5_linear_29_76)"/>
<path d="M-359.952 -364.169L-362 -362.12L353.957 353.831L356.005 351.783L-359.952 -364.169Z" fill="url(#paint6_linear_29_76)"/>
<path d="M-110.57 -512.663L-112.618 -510.615L603.338 205.337L605.387 203.289L-110.57 -512.663Z" fill="url(#paint7_linear_29_76)"/>
<g style="mix-blend-mode:screen">
<path d="M212.395 -54.7263C299.411 32.2893 364.07 108.683 356.828 115.962C349.586 123.242 273.154 58.5648 186.138 -28.4508C99.1213 -115.466 34.4441 -191.86 41.7047 -199.14C48.9654 -206.419 125.378 -141.742 212.395 -54.7263Z" fill="url(#paint8_radial_29_76)"/>
</g>
<g style="mix-blend-mode:screen">
<path d="M206.638 -48.9697C255.568 -0.058197 291.927 42.9111 287.842 47.0892C283.757 51.2673 240.806 14.8158 191.875 -34.1143C142.945 -83.0443 106.605 -126.088 110.69 -130.173C114.775 -134.258 157.726 -97.8997 206.638 -48.9697Z" fill="url(#paint9_radial_29_76)"/>
</g>
</g>
</g>
<defs>
<linearGradient id="paint0_linear_29_76" x1="-143.68" y1="-523.026" x2="665.157" y2="280.564" gradientUnits="userSpaceOnUse">
<stop stop-color="#F4EFEA"/>
<stop offset="0.06" stop-color="#F3EDE8"/>
<stop offset="0.53" stop-color="#EEE3D8"/>
<stop offset="0.99" stop-color="#E3D1BD"/>
</linearGradient>
<linearGradient id="paint1_linear_29_76" x1="497.927" y1="142.882" x2="89.9114" y2="-265.136" gradientUnits="userSpaceOnUse">
<stop stop-color="#F4E0AE"/>
<stop offset="0.2" stop-color="#EACD8C"/>
<stop offset="0.32" stop-color="#E5C47C"/>
<stop offset="0.36" stop-color="#E0BE77"/>
<stop offset="0.42" stop-color="#D2AD69"/>
<stop offset="0.5" stop-color="#BC9152"/>
<stop offset="0.54" stop-color="#AA7A40"/>
<stop offset="0.62" stop-color="#C09657"/>
<stop offset="0.72" stop-color="#D4AF6B"/>
<stop offset="0.8" stop-color="#E1BF78"/>
<stop offset="0.87" stop-color="#E5C47C"/>
</linearGradient>
<linearGradient id="paint2_linear_29_76" x1="380.578" y1="267.22" x2="-53.0951" y2="-166.456" gradientUnits="userSpaceOnUse">
<stop stop-color="#F4E0AE"/>
<stop offset="0.2" stop-color="#EACD8C"/>
<stop offset="0.32" stop-color="#E5C47C"/>
<stop offset="0.36" stop-color="#E0BE77"/>
<stop offset="0.42" stop-color="#D2AD69"/>
<stop offset="0.5" stop-color="#BC9152"/>
<stop offset="0.54" stop-color="#AA7A40"/>
<stop offset="0.62" stop-color="#C09657"/>
<stop offset="0.72" stop-color="#D4AF6B"/>
<stop offset="0.8" stop-color="#E1BF78"/>
<stop offset="0.87" stop-color="#E5C47C"/>
</linearGradient>
<linearGradient id="paint3_linear_29_76" x1="477.15" y1="166.958" x2="43.4767" y2="-266.718" gradientUnits="userSpaceOnUse">
<stop stop-color="#F4E0AE"/>
<stop offset="0.2" stop-color="#EACD8C"/>
<stop offset="0.32" stop-color="#E5C47C"/>
<stop offset="0.36" stop-color="#E0BE77"/>
<stop offset="0.42" stop-color="#D2AD69"/>
<stop offset="0.5" stop-color="#BC9152"/>
<stop offset="0.54" stop-color="#AA7A40"/>
<stop offset="0.62" stop-color="#C09657"/>
<stop offset="0.72" stop-color="#D4AF6B"/>
<stop offset="0.8" stop-color="#E1BF78"/>
<stop offset="0.87" stop-color="#E5C47C"/>
</linearGradient>
<linearGradient id="paint4_linear_29_76" x1="593.2" y1="103.799" x2="159.527" y2="-329.877" gradientUnits="userSpaceOnUse">
<stop stop-color="#F4E0AE"/>
<stop offset="0.2" stop-color="#EACD8C"/>
<stop offset="0.32" stop-color="#E5C47C"/>
<stop offset="0.36" stop-color="#E0BE77"/>
<stop offset="0.42" stop-color="#D2AD69"/>
<stop offset="0.5" stop-color="#BC9152"/>
<stop offset="0.54" stop-color="#AA7A40"/>
<stop offset="0.62" stop-color="#C09657"/>
<stop offset="0.72" stop-color="#D4AF6B"/>
<stop offset="0.8" stop-color="#E1BF78"/>
<stop offset="0.87" stop-color="#E5C47C"/>
</linearGradient>
<linearGradient id="paint5_linear_29_76" x1="344.277" y1="266.018" x2="-89.3962" y2="-167.657" gradientUnits="userSpaceOnUse">
<stop stop-color="#F4E0AE"/>
<stop offset="0.2" stop-color="#EACD8C"/>
<stop offset="0.32" stop-color="#E5C47C"/>
<stop offset="0.36" stop-color="#E0BE77"/>
<stop offset="0.42" stop-color="#D2AD69"/>
<stop offset="0.5" stop-color="#BC9152"/>
<stop offset="0.54" stop-color="#AA7A40"/>
<stop offset="0.62" stop-color="#C09657"/>
<stop offset="0.72" stop-color="#D4AF6B"/>
<stop offset="0.8" stop-color="#E1BF78"/>
<stop offset="0.87" stop-color="#E5C47C"/>
</linearGradient>
<linearGradient id="paint6_linear_29_76" x1="269.96" y1="267.656" x2="-163.712" y2="-166.02" gradientUnits="userSpaceOnUse">
<stop stop-color="#F4E0AE"/>
<stop offset="0.2" stop-color="#EACD8C"/>
<stop offset="0.32" stop-color="#E5C47C"/>
<stop offset="0.36" stop-color="#E0BE77"/>
<stop offset="0.42" stop-color="#D2AD69"/>
<stop offset="0.5" stop-color="#BC9152"/>
<stop offset="0.54" stop-color="#AA7A40"/>
<stop offset="0.62" stop-color="#C09657"/>
<stop offset="0.72" stop-color="#D4AF6B"/>
<stop offset="0.8" stop-color="#E1BF78"/>
<stop offset="0.87" stop-color="#E5C47C"/>
</linearGradient>
<linearGradient id="paint7_linear_29_76" x1="519.237" y1="119.214" x2="85.5642" y2="-314.461" gradientUnits="userSpaceOnUse">
<stop stop-color="#F4E0AE"/>
<stop offset="0.2" stop-color="#EACD8C"/>
<stop offset="0.32" stop-color="#E5C47C"/>
<stop offset="0.36" stop-color="#E0BE77"/>
<stop offset="0.42" stop-color="#D2AD69"/>
<stop offset="0.5" stop-color="#BC9152"/>
<stop offset="0.54" stop-color="#AA7A40"/>
<stop offset="0.62" stop-color="#C09657"/>
<stop offset="0.72" stop-color="#D4AF6B"/>
<stop offset="0.8" stop-color="#E1BF78"/>
<stop offset="0.87" stop-color="#E5C47C"/>
</linearGradient>
<radialGradient id="paint8_radial_29_76" cx="0" cy="0" r="1" gradientUnits="userSpaceOnUse" gradientTransform="translate(141.937 15.7676) rotate(-44.9998) scale(17.831 222.888)">
<stop stop-color="#8C4703"/>
<stop offset="0.09" stop-color="#7B3F03"/>
<stop offset="0.49" stop-color="#391D01"/>
<stop offset="0.78" stop-color="#100800"/>
<stop offset="0.93"/>
</radialGradient>
<radialGradient id="paint9_radial_29_76" cx="0" cy="0" r="1" gradientUnits="userSpaceOnUse" gradientTransform="translate(295.417 -150.994) rotate(-44.9998) scale(11.1472 124.848)">
<stop stop-color="#F9EEB8"/>
<stop offset="0.04" stop-color="#EBE1AE"/>
<stop offset="0.23" stop-color="#A59D7A"/>
<stop offset="0.41" stop-color="#6A654E"/>
<stop offset="0.58" stop-color="#3C3A2D"/>
<stop offset="0.72" stop-color="#1B1A14"/>
<stop offset="0.85" stop-color="#070705"/>
<stop offset="0.93"/>
</radialGradient>
<radialGradient id="paint10_radial_29_76" cx="0" cy="0" r="1" gradientUnits="userSpaceOnUse" gradientTransform="translate(126.892 126.454) rotate(-44.9998) scale(17.831 222.888)">
<stop stop-color="#8C4703"/>
<stop offset="0.09" stop-color="#7B3F03"/>
<stop offset="0.49" stop-color="#391D01"/>
<stop offset="0.78" stop-color="#100800"/>
<stop offset="0.93"/>
</radialGradient>
<radialGradient id="paint11_radial_29_76" cx="0" cy="0" r="1" gradientUnits="userSpaceOnUse" gradientTransform="translate(273.133 -33.444) rotate(-44.9998) scale(11.1472 124.848)">
<stop stop-color="#F9EEB8"/>
<stop offset="0.04" stop-color="#EBE1AE"/>
<stop offset="0.23" stop-color="#A59D7A"/>
<stop offset="0.41" stop-color="#6A654E"/>
<stop offset="0.58" stop-color="#3C3A2D"/>
<stop offset="0.72" stop-color="#1B1A14"/>
<stop offset="0.85" stop-color="#070705"/>
<stop offset="0.93"/>
</radialGradient>
<clipPath id="clip0_29_76">
<rect width="130" height="133" fill="white"/>
</clipPath>
</defs>
</svg>
