<svg width="174" height="174" viewBox="0 0 174 174" fill="none" xmlns="http://www.w3.org/2000/svg">
<g clip-path="url(#clip0_27_75)">
<g style="mix-blend-mode:screen">
<g style="mix-blend-mode:screen">
<path d="M87.1718 176.093L87.3946 176H87.5246C87.842 175.747 88.0484 175.381 88.1002 174.979C88.1365 174.632 88.0453 174.285 87.8436 174.001C87.6419 173.717 87.3436 173.517 87.0046 173.437H86.6147H86.3547H86.2433H86.0947H86.0019C85.8493 173.551 85.7225 173.696 85.6297 173.863C85.5369 174.029 85.4802 174.213 85.4634 174.403C85.4404 174.672 85.4883 174.942 85.6024 175.186C85.7164 175.431 85.8926 175.641 86.1133 175.796H86.2619H86.4661H86.6332H87.1718V176.093Z" fill="#DFCBB3"/>
</g>
<g style="mix-blend-mode:screen">
<path d="M24.9457 170.299H25.0757H25.28H25.7814H25.8928C26.1226 170.27 26.3406 170.181 26.5241 170.039L26.6727 169.891L26.8027 169.649V169.463V168.962V168.814C26.7666 168.574 26.6778 168.346 26.5427 168.145L26.3941 168.015L26.1342 167.867H25.9485H25.4471H25.2243L25.0757 167.737L24.7229 167.514H24.5372H24.2772H24.073C23.6653 167.601 23.299 167.824 23.0331 168.145L22.8288 168.405V168.554V168.776V168.944V169.333V169.501L22.9217 169.705V169.853C23.0781 170.041 23.2741 170.192 23.4956 170.294C23.7172 170.397 23.9587 170.449 24.203 170.448C24.4593 170.465 24.7157 170.414 24.9457 170.299Z" fill="#D59C38"/>
</g>
<g style="mix-blend-mode:screen">
<path d="M30.4608 134.386L30.2008 134.887V135.147V135.537L30.2937 135.797L30.4236 136.002V136.132V136.354C30.5943 136.775 30.8769 137.141 31.2407 137.413L31.5192 137.506H31.9463H32.2434L32.7263 137.171L32.9119 136.911L33.0419 136.503V136.206V135.927C33.0419 135.742 32.9305 135.537 32.8562 135.333C32.736 134.997 32.5215 134.702 32.2382 134.485C31.955 134.268 31.6151 134.137 31.2593 134.107H30.9807L30.6465 134.293L30.4608 134.386Z" fill="#662B02"/>
</g>
<g style="mix-blend-mode:screen">
<path d="M15.7353 174.459L15.8467 174.719V174.83V174.96L15.9396 175.053L16.181 175.257H16.3481H16.4781C16.7294 175.307 16.9895 175.289 17.2312 175.204C17.473 175.119 17.6875 174.971 17.8522 174.774C18.0114 174.566 18.1153 174.32 18.1543 174.06C18.1932 173.8 18.166 173.535 18.0751 173.289C17.9964 173.077 17.87 172.887 17.7057 172.732C17.5415 172.578 17.3438 172.463 17.128 172.397C16.9413 172.343 16.7449 172.329 16.5525 172.358C16.36 172.387 16.1762 172.457 16.0139 172.565C15.7302 172.782 15.5425 173.102 15.4905 173.455C15.4385 173.809 15.5263 174.169 15.7353 174.459Z" fill="#F9F6D2"/>
</g>
<g style="mix-blend-mode:screen">
<path d="M63.8672 145.806V145.602V145.323V145.119V144.952V144.84V144.618L63.7186 144.135L63.6072 143.949L63.3658 143.726L63.1801 143.596C62.9932 143.521 62.7921 143.489 62.5911 143.5C62.3901 143.512 62.1941 143.567 62.0169 143.663C61.8398 143.759 61.6858 143.892 61.5659 144.054C61.4461 144.216 61.3632 144.402 61.3231 144.599L61.4717 144.915L61.3603 145.156L61.5831 145.695V145.917C61.7094 146.142 61.897 146.326 62.1239 146.447C62.3508 146.569 62.6076 146.623 62.8644 146.604C63.0876 146.573 63.2983 146.482 63.4746 146.342C63.651 146.202 63.7865 146.016 63.8672 145.806Z" fill="#EADECF"/>
</g>
<g style="mix-blend-mode:screen">
<path d="M29.7553 143.021H29.9224L30.1638 142.873L30.3123 142.743L30.5537 142.39V142.223V141.944V141.758C30.5306 141.533 30.4567 141.316 30.3378 141.123C30.2188 140.93 30.0577 140.766 29.8667 140.644H29.7367H29.4024H29.0496C28.7308 140.747 28.4632 140.968 28.3011 141.261C28.139 141.554 28.0946 141.898 28.1769 142.223C28.2975 142.525 28.5245 142.773 28.8151 142.92C29.1058 143.067 29.4401 143.103 29.7553 143.021Z" fill="#C47F1E"/>
</g>
<g style="mix-blend-mode:screen">
<path d="M0.508436 176.613L0.638421 176.836L0.879823 177.096L1.10266 177.226L1.6226 177.356H1.864L2.16111 177.263L2.2911 177.374L2.56964 177.523H2.79247H3.40526C3.70092 177.506 3.98515 177.403 4.22232 177.226C4.44877 177.034 4.60077 176.77 4.65169 176.478C4.70261 176.186 4.64922 175.885 4.50086 175.629L4.38944 175.499L4.22232 175.332L4.07376 175.239L3.70237 175.072H3.55382H3.38669V174.756C3.39134 174.491 3.33905 174.227 3.23334 173.984C3.12763 173.74 2.97097 173.522 2.7739 173.345L2.5325 173.233H2.14254H1.88257L1.3812 173.456L1.15837 173.623L0.954101 173.92L0.861255 174.18C0.826941 174.366 0.770844 174.546 0.69413 174.719C0.432747 175.314 0.36771 175.978 0.508436 176.613Z" fill="#E7B851"/>
</g>
<g style="mix-blend-mode:screen">
<path d="M17.908 152.138V152.38V152.565C18.0206 152.835 18.2013 153.071 18.4324 153.25C18.6635 153.429 18.9371 153.545 19.2264 153.587C19.4772 153.627 19.7341 153.608 19.9761 153.531C20.218 153.453 20.4384 153.32 20.6191 153.141C20.8665 152.907 21.0506 152.614 21.1545 152.289C21.2584 151.964 21.2786 151.619 21.2133 151.284C21.138 150.987 20.9848 150.714 20.7694 150.496C20.554 150.277 20.2842 150.12 19.9877 150.04H19.8206H19.5606H19.3749L19.0036 150.226H18.855L18.6693 150.43V150.541L18.5393 150.709C18.2515 151.019 18.0582 151.406 17.9822 151.823L17.908 152.138Z" fill="#EADECF"/>
</g>
<g style="mix-blend-mode:screen">
<path d="M10.3502 149.26C10.1384 149.308 9.93856 149.399 9.76296 149.526C9.58736 149.654 9.43964 149.816 9.32884 150.003V150.189V150.449V150.653L9.44026 151.061V151.228L9.58881 151.433L9.7188 151.563C9.93789 151.706 10.1847 151.8 10.443 151.841L10.7401 151.953H10.9629H11.4458H11.6686L11.9286 151.786L12.0957 151.618C12.3055 151.288 12.3765 150.888 12.293 150.505C12.2095 150.123 11.9785 149.789 11.65 149.576C11.4679 149.434 11.2579 149.333 11.0339 149.279C10.8098 149.224 10.5768 149.218 10.3502 149.26Z" fill="#793903"/>
</g>
<g style="mix-blend-mode:screen">
<path d="M15.3268 154.069L15.4568 153.865V153.717C15.5536 153.326 15.4936 152.912 15.2897 152.565C15.1132 152.249 14.8206 152.015 14.474 151.911C14.1274 151.807 13.754 151.842 13.4327 152.008H13.3027L13.117 152.212V152.305V152.454V152.547C13.0245 152.924 13.0776 153.321 13.2656 153.661C13.4153 153.887 13.6197 154.072 13.8599 154.199C14.1001 154.326 14.3683 154.39 14.6397 154.385H14.7883H15.0111H15.1597L15.4568 154.144L15.3268 154.069Z" fill="#C47F1E"/>
</g>
<g style="mix-blend-mode:screen">
<path d="M41.8253 84.7693L41.9738 84.5278V84.4164V84.2493V83.6922V83.5065V83.3951C41.862 83.1657 41.6876 82.9725 41.4708 82.8379C41.2539 82.7032 41.0035 82.6324 40.7483 82.6338C40.4852 82.6314 40.2263 82.6989 39.9979 82.8294C39.7695 82.9599 39.5799 83.1488 39.4484 83.3766C39.3296 83.5698 39.2591 83.7889 39.243 84.0151C39.2268 84.2414 39.2654 84.4682 39.3556 84.6764C39.4228 84.8563 39.5321 85.0175 39.6742 85.1467C39.8163 85.2759 39.9872 85.3693 40.1726 85.4192C40.4799 85.5319 40.8178 85.528 41.1224 85.4082C41.427 85.2884 41.6771 85.0611 41.8253 84.7693Z" fill="#9F5504"/>
</g>
<g style="mix-blend-mode:screen">
<path d="M-0.550087 97.8791L-0.401532 98.0091L-0.141561 98.1391H0.0441337H0.248397L0.452661 98.2319H0.954034H1.25114H1.56682L1.77109 98.1205C1.9147 97.99 2.02945 97.8309 2.10797 97.6534C2.18649 97.4759 2.22705 97.284 2.22705 97.0899C2.22705 96.8958 2.18649 96.7039 2.10797 96.5265C2.02945 96.349 1.9147 96.1899 1.77109 96.0593H1.41827L1.26971 95.8551H0.675494L0.489799 95.7437C0.235201 95.7337 -0.0167024 95.7988 -0.2346 95.9309C-0.452497 96.0629 -0.626779 96.2561 -0.735782 96.4864C-0.848762 96.7102 -0.891483 96.963 -0.858347 97.2115C-0.825211 97.46 -0.717763 97.6927 -0.550087 97.8791Z" fill="#E7D8C6"/>
</g>
<g style="mix-blend-mode:screen">
<path d="M55.4924 105.715V106.105V106.291V106.551V106.718L55.7153 107.071L55.8453 107.201L56.0495 107.35H56.2167C56.425 107.411 56.6444 107.427 56.8594 107.395C57.0743 107.363 57.2796 107.284 57.4608 107.164C57.6319 107.043 57.7762 106.889 57.8848 106.71C57.9935 106.531 58.0641 106.331 58.0922 106.124V105.808V105.548L57.9993 105.381L57.7579 105.065L57.6094 104.936L57.3865 104.806H57.2194H56.8109H56.6252H56.3652H56.1795L55.8267 105.047L55.6039 105.307L55.4739 105.53L55.4924 105.715Z" fill="#431B06"/>
</g>
<g style="mix-blend-mode:screen">
<path d="M12.3555 140.774L12.7826 140.422L12.9126 140.254L13.0426 139.976V139.79C13.0622 139.569 13.0324 139.345 12.9554 139.137C12.8783 138.928 12.7559 138.739 12.5969 138.583C12.4475 138.449 12.2695 138.351 12.0764 138.297C11.8833 138.242 11.6803 138.232 11.4828 138.268H11.3342L11.13 138.379H11L10.74 138.658L10.6286 138.787V139.01V139.177C10.5934 139.501 10.6652 139.826 10.8329 140.105C11.0006 140.383 11.255 140.599 11.5571 140.719H11.817H12.1884L12.3555 140.774Z" fill="#9F5504"/>
</g>
<g style="mix-blend-mode:screen">
<path d="M1.54827 167.514L1.65969 167.644H1.75253L2.03107 167.848H2.14249H2.29105H2.42103C2.67268 167.881 2.92852 167.837 3.15424 167.721C3.37995 167.605 3.56472 167.422 3.68375 167.198C3.83037 166.938 3.8963 166.64 3.87316 166.343C3.85001 166.045 3.73883 165.761 3.55377 165.527L3.36807 165.378L3.05239 165.23H2.81099H2.30962H2.06821L1.78967 165.415L1.62255 165.583C1.46576 165.804 1.36958 166.063 1.34352 166.334C1.31747 166.604 1.36244 166.876 1.47399 167.124L1.54827 167.514Z" fill="#F9DD85"/>
</g>
<g style="mix-blend-mode:screen">
<path d="M34.4532 86.7372V86.4772V86.273C34.3817 85.9482 34.1868 85.664 33.9096 85.4803C33.6323 85.2967 33.2946 85.228 32.9677 85.2888H32.8005L32.5963 85.4002L32.4663 85.5116L32.3177 85.623L32.132 85.8087V85.9573L31.9835 86.2915V86.4401V86.8301C32.027 87.0217 32.1087 87.2027 32.2235 87.3621C32.3383 87.5216 32.484 87.6564 32.652 87.7585C32.824 87.8517 33.0136 87.908 33.2086 87.924C33.4036 87.94 33.5998 87.9153 33.7847 87.8514L34.1004 87.7214L34.249 87.61L34.4347 87.4057V87.2386L34.5646 86.8301L34.4532 86.7372Z" fill="#E3D1BD"/>
</g>
<g style="mix-blend-mode:screen">
<path d="M1.2326 85.5309L1.06547 85.6608L0.879776 85.8837L0.768361 86.0694C0.643795 86.2455 0.566443 86.4507 0.543688 86.6652C0.520932 86.8797 0.553531 87.0966 0.638374 87.2949L0.749791 87.4806L0.972623 87.6849L1.13975 87.7777L1.65969 87.9634H1.75254C2.06164 87.977 2.36712 87.8925 2.6253 87.722L2.77386 87.6106L2.88527 87.4435L3.01526 87.1835V86.9978V86.385V86.1436L2.90384 85.9579C2.72054 85.7009 2.45219 85.517 2.14631 85.4388C1.84043 85.3607 1.51675 85.3933 1.2326 85.5309Z" fill="#D6BDA1"/>
</g>
<g style="mix-blend-mode:screen">
<path d="M27.7497 133.161H27.6011H27.3783H26.5241H26.3198L26.0599 133.291L25.9113 133.402C25.6856 133.65 25.5414 133.961 25.4983 134.293C25.4551 134.625 25.515 134.962 25.6699 135.259L25.8928 135.389L26.227 135.575L26.4498 135.76H27.0255H27.2855L27.5826 135.575L27.3969 135.278L27.7497 135.389L27.5269 135.203H27.434L27.824 135.445C27.9896 135.304 28.1209 135.127 28.2078 134.927C28.2947 134.728 28.3349 134.511 28.3253 134.294C28.34 134.07 28.2943 133.847 28.193 133.648C28.0917 133.449 27.9386 133.28 27.7497 133.161Z" fill="#F9D46B"/>
</g>
<g style="mix-blend-mode:screen">
<path d="M2.75536 49.1718V48.9304V48.7261C2.61699 48.4251 2.36886 48.1882 2.06168 48.064C1.7545 47.9397 1.41146 47.9375 1.10268 48.0577L0.954127 48.1505L0.768434 48.299L0.657017 48.429L0.527031 48.559L0.378476 48.7818V48.949V49.3018V49.4504V49.6732V49.8217C0.455608 50.006 0.57199 50.1713 0.719514 50.3059C0.867038 50.4406 1.04216 50.5416 1.23267 50.6016C1.41651 50.6632 1.61168 50.6835 1.80426 50.661C1.99685 50.6386 2.1821 50.5739 2.34683 50.4716L2.64394 50.2859L2.75536 50.1374L2.88535 49.9146V49.7289V49.3204L2.75536 49.1718Z" fill="#F9E59F"/>
</g>
<g style="mix-blend-mode:screen">
<path d="M16.2924 90.0428L16.6081 90.1914H16.9795H17.1652L17.7037 90.0243L17.9265 89.8571L18.1679 89.5601L18.2793 89.3186V89.2258C18.3374 89.0293 18.3537 88.8228 18.3271 88.6196C18.3005 88.4164 18.2316 88.221 18.1249 88.0461C18.0181 87.8711 17.876 87.7205 17.7075 87.6038C17.539 87.4872 17.3479 87.4072 17.1466 87.3689H16.9609H16.7195H16.5524L16.2181 87.5546L16.0696 87.666L15.9024 87.8517V88.0188C15.7285 88.3505 15.6723 88.7313 15.7432 89.0991C15.814 89.4668 16.0077 89.7996 16.2924 90.0428Z" fill="#EADECF"/>
</g>
<g style="mix-blend-mode:screen">
<path d="M6.02364 80.7397L6.13506 80.5354V80.3683C6.19191 79.9715 6.09925 79.5678 5.87508 79.2356C5.67216 78.9486 5.37065 78.7464 5.02812 78.6676C4.6856 78.5888 4.32605 78.639 4.01814 78.8084L3.90673 78.9199L3.60962 79.3098V79.4584V79.5698C3.54681 79.9465 3.63341 80.3329 3.85102 80.6468C4.00708 80.8699 4.22078 81.0465 4.46933 81.1577C4.71787 81.2689 4.99194 81.3105 5.26229 81.2782H5.42942L5.46656 81.1667L5.59654 81.0739L5.87508 80.8325L6.02364 80.7397Z" fill="#E7D8C6"/>
</g>
<path d="M159.955 575.34L192.782 542.514L-480.816 -131.079L-513.642 -98.2525L159.955 575.34Z" fill="url(#paint0_linear_27_75)"/>
<path d="M186.877 548.413L192.786 542.504L-480.812 -131.088L-486.721 -125.18L186.877 548.413Z" fill="url(#paint1_linear_27_75)"/>
<path d="M343.592 459.423L345.64 457.375L-370.316 -258.577L-372.365 -256.529L343.592 459.423Z" fill="url(#paint2_linear_27_75)"/>
<path d="M247.02 559.685L249.069 557.636L-466.888 -158.315L-468.936 -156.267L247.02 559.685Z" fill="url(#paint3_linear_27_75)"/>
<path d="M130.957 622.831L133.005 620.783L-582.952 -95.169L-585 -93.1206L130.957 622.831Z" fill="url(#paint4_linear_27_75)"/>
<path d="M379.788 460.677L381.836 458.628L-334.12 -257.323L-336.169 -255.275L379.788 460.677Z" fill="url(#paint5_linear_27_75)"/>
<path d="M454.196 459L456.245 456.951L-259.712 -259L-261.76 -256.952L454.196 459Z" fill="url(#paint6_linear_27_75)"/>
<path d="M204.814 607.494L206.863 605.446L-509.094 -110.506L-511.142 -108.458L204.814 607.494Z" fill="url(#paint7_linear_27_75)"/>
<g style="mix-blend-mode:screen">
<path d="M-118.15 149.557C-205.166 62.5418 -269.825 -13.8522 -262.583 -21.1314C-255.341 -28.4106 -178.909 36.2662 -91.8931 123.282C-4.87682 210.297 59.8004 286.692 52.5398 293.971C45.2792 301.25 -31.134 236.573 -118.15 149.557Z" fill="url(#paint8_radial_27_75)"/>
</g>
<g style="mix-blend-mode:screen">
<path d="M-94.8084 30.5283C-143.683 -18.3832 -180.042 -61.3525 -175.957 -65.5306C-171.871 -69.7087 -128.92 -33.1644 -79.9529 15.7657C-30.9853 64.6957 5.28072 107.647 1.19545 111.732C-2.88982 115.817 -45.8409 79.4583 -94.8084 30.5283Z" fill="url(#paint10_radial_27_75)"/>
</g>
</g>
</g>
<defs>
<linearGradient id="paint0_linear_27_75" x1="237.924" y1="617.857" x2="-570.912" y2="-185.733" gradientUnits="userSpaceOnUse">
<stop stop-color="#F4EFEA"/>
<stop offset="0.06" stop-color="#F3EDE8"/>
<stop offset="0.53" stop-color="#EEE3D8"/>
<stop offset="0.99" stop-color="#E3D1BD"/>
</linearGradient>
<linearGradient id="paint1_linear_27_75" x1="-403.683" y1="-48.0513" x2="4.33312" y2="359.968" gradientUnits="userSpaceOnUse">
<stop stop-color="#F4E0AE"/>
<stop offset="0.2" stop-color="#EACD8C"/>
<stop offset="0.32" stop-color="#E5C47C"/>
<stop offset="0.36" stop-color="#E0BE77"/>
<stop offset="0.42" stop-color="#D2AD69"/>
<stop offset="0.5" stop-color="#BC9152"/>
<stop offset="0.54" stop-color="#AA7A40"/>
<stop offset="0.62" stop-color="#C09657"/>
<stop offset="0.72" stop-color="#D4AF6B"/>
<stop offset="0.8" stop-color="#E1BF78"/>
<stop offset="0.87" stop-color="#E5C47C"/>
</linearGradient>
<linearGradient id="paint2_linear_27_75" x1="-286.333" y1="-172.389" x2="147.34" y2="261.287" gradientUnits="userSpaceOnUse">
<stop stop-color="#F4E0AE"/>
<stop offset="0.2" stop-color="#EACD8C"/>
<stop offset="0.32" stop-color="#E5C47C"/>
<stop offset="0.36" stop-color="#E0BE77"/>
<stop offset="0.42" stop-color="#D2AD69"/>
<stop offset="0.5" stop-color="#BC9152"/>
<stop offset="0.54" stop-color="#AA7A40"/>
<stop offset="0.62" stop-color="#C09657"/>
<stop offset="0.72" stop-color="#D4AF6B"/>
<stop offset="0.8" stop-color="#E1BF78"/>
<stop offset="0.87" stop-color="#E5C47C"/>
</linearGradient>
<linearGradient id="paint3_linear_27_75" x1="-382.905" y1="-72.1268" x2="50.7679" y2="361.549" gradientUnits="userSpaceOnUse">
<stop stop-color="#F4E0AE"/>
<stop offset="0.2" stop-color="#EACD8C"/>
<stop offset="0.32" stop-color="#E5C47C"/>
<stop offset="0.36" stop-color="#E0BE77"/>
<stop offset="0.42" stop-color="#D2AD69"/>
<stop offset="0.5" stop-color="#BC9152"/>
<stop offset="0.54" stop-color="#AA7A40"/>
<stop offset="0.62" stop-color="#C09657"/>
<stop offset="0.72" stop-color="#D4AF6B"/>
<stop offset="0.8" stop-color="#E1BF78"/>
<stop offset="0.87" stop-color="#E5C47C"/>
</linearGradient>
<linearGradient id="paint4_linear_27_75" x1="-498.955" y1="-8.96747" x2="-65.2824" y2="424.708" gradientUnits="userSpaceOnUse">
<stop stop-color="#F4E0AE"/>
<stop offset="0.2" stop-color="#EACD8C"/>
<stop offset="0.32" stop-color="#E5C47C"/>
<stop offset="0.36" stop-color="#E0BE77"/>
<stop offset="0.42" stop-color="#D2AD69"/>
<stop offset="0.5" stop-color="#BC9152"/>
<stop offset="0.54" stop-color="#AA7A40"/>
<stop offset="0.62" stop-color="#C09657"/>
<stop offset="0.72" stop-color="#D4AF6B"/>
<stop offset="0.8" stop-color="#E1BF78"/>
<stop offset="0.87" stop-color="#E5C47C"/>
</linearGradient>
<linearGradient id="paint5_linear_27_75" x1="-250.032" y1="-171.187" x2="183.641" y2="262.489" gradientUnits="userSpaceOnUse">
<stop stop-color="#F4E0AE"/>
<stop offset="0.2" stop-color="#EACD8C"/>
<stop offset="0.32" stop-color="#E5C47C"/>
<stop offset="0.36" stop-color="#E0BE77"/>
<stop offset="0.42" stop-color="#D2AD69"/>
<stop offset="0.5" stop-color="#BC9152"/>
<stop offset="0.54" stop-color="#AA7A40"/>
<stop offset="0.62" stop-color="#C09657"/>
<stop offset="0.72" stop-color="#D4AF6B"/>
<stop offset="0.8" stop-color="#E1BF78"/>
<stop offset="0.87" stop-color="#E5C47C"/>
</linearGradient>
<linearGradient id="paint6_linear_27_75" x1="-175.716" y1="-172.825" x2="257.957" y2="260.851" gradientUnits="userSpaceOnUse">
<stop stop-color="#F4E0AE"/>
<stop offset="0.2" stop-color="#EACD8C"/>
<stop offset="0.32" stop-color="#E5C47C"/>
<stop offset="0.36" stop-color="#E0BE77"/>
<stop offset="0.42" stop-color="#D2AD69"/>
<stop offset="0.5" stop-color="#BC9152"/>
<stop offset="0.54" stop-color="#AA7A40"/>
<stop offset="0.62" stop-color="#C09657"/>
<stop offset="0.72" stop-color="#D4AF6B"/>
<stop offset="0.8" stop-color="#E1BF78"/>
<stop offset="0.87" stop-color="#E5C47C"/>
</linearGradient>
<linearGradient id="paint7_linear_27_75" x1="-424.993" y1="-24.3834" x2="8.6803" y2="409.293" gradientUnits="userSpaceOnUse">
<stop stop-color="#F4E0AE"/>
<stop offset="0.2" stop-color="#EACD8C"/>
<stop offset="0.32" stop-color="#E5C47C"/>
<stop offset="0.36" stop-color="#E0BE77"/>
<stop offset="0.42" stop-color="#D2AD69"/>
<stop offset="0.5" stop-color="#BC9152"/>
<stop offset="0.54" stop-color="#AA7A40"/>
<stop offset="0.62" stop-color="#C09657"/>
<stop offset="0.72" stop-color="#D4AF6B"/>
<stop offset="0.8" stop-color="#E1BF78"/>
<stop offset="0.87" stop-color="#E5C47C"/>
</linearGradient>
<radialGradient id="paint8_radial_27_75" cx="0" cy="0" r="1" gradientUnits="userSpaceOnUse" gradientTransform="translate(-47.6922 79.0634) rotate(135) scale(17.831 222.888)">
<stop stop-color="#8C4703"/>
<stop offset="0.09" stop-color="#7B3F03"/>
<stop offset="0.49" stop-color="#391D01"/>
<stop offset="0.78" stop-color="#100800"/>
<stop offset="0.93"/>
</radialGradient>
<radialGradient id="paint9_radial_27_75" cx="0" cy="0" r="1" gradientUnits="userSpaceOnUse" gradientTransform="translate(-32.6477 -31.6233) rotate(135) scale(17.831 222.888)">
<stop stop-color="#8C4703"/>
<stop offset="0.09" stop-color="#7B3F03"/>
<stop offset="0.49" stop-color="#391D01"/>
<stop offset="0.78" stop-color="#100800"/>
<stop offset="0.93"/>
</radialGradient>
<radialGradient id="paint10_radial_27_75" cx="0" cy="0" r="1" gradientUnits="userSpaceOnUse" gradientTransform="translate(-178.888 128.275) rotate(135) scale(11.1472 124.848)">
<stop stop-color="#F9EEB8"/>
<stop offset="0.04" stop-color="#EBE1AE"/>
<stop offset="0.23" stop-color="#A59D7A"/>
<stop offset="0.41" stop-color="#6A654E"/>
<stop offset="0.58" stop-color="#3C3A2D"/>
<stop offset="0.72" stop-color="#1B1A14"/>
<stop offset="0.85" stop-color="#070705"/>
<stop offset="0.93"/>
</radialGradient>
<clipPath id="clip0_27_75">
<rect width="174" height="174" fill="white"/>
</clipPath>
</defs>
</svg>
