<svg width="27" height="26" viewBox="0 0 27 26" fill="none" xmlns="http://www.w3.org/2000/svg">
<path fill-rule="evenodd" clip-rule="evenodd" d="M5.01886 24.0253C4.89244 24.7459 5.60348 25.31 6.23145 24.9872L13.3639 21.3213L20.4964 24.9872C21.1244 25.31 21.8354 24.7459 21.709 24.0253L20.3607 16.3399L26.0845 10.8853C26.6194 10.3756 26.3425 9.44354 25.6259 9.34174L17.6659 8.21095L14.1167 1.18032C13.797 0.54699 12.9309 0.54699 12.6112 1.18032L9.06199 8.21095L1.10197 9.34174C0.385359 9.44354 0.108459 10.3756 0.643378 10.8853L6.36717 16.3399L5.01886 24.0253ZM12.9888 19.5271L6.99949 22.6054L8.12766 16.1748C8.18084 15.8717 8.08084 15.5613 7.86319 15.3539L3.13958 10.8525L9.72458 9.91701C9.99679 9.87834 10.2345 9.70449 10.3629 9.45011L13.3639 3.50532L16.365 9.45011C16.4934 9.70449 16.7311 9.87834 17.0033 9.91701L23.5883 10.8525L18.8647 15.3539C18.647 15.5613 18.547 15.8717 18.6002 16.1748L19.7284 22.6054L13.739 19.5271C13.5024 19.4055 13.2254 19.4055 12.9888 19.5271Z" fill="#9D875C"/>
</svg>
